<svg width="409" height="409" viewBox="0 0 409 409" fill="none" xmlns="http://www.w3.org/2000/svg">
<path d="M385.72 227.085C385.72 227.085 388.264 128.181 329.989 81.8C278.545 40.8346 206.471 33.3744 156.573 82.2744C138.815 99.6897 128.688 129.563 106.675 141.866C81.9473 155.665 48.7119 164.565 30.9531 209.367C13.1944 254.169 30.4378 305.114 67.5096 327.724C104.581 350.333 157.056 313.858 208.058 303.478C259.061 293.098 378.071 349.883 385.72 227.085Z" fill="#1D9FD9"/>
<path opacity="0.7" d="M385.72 227.085C385.72 227.085 388.264 128.181 329.989 81.8C278.545 40.8346 206.471 33.3744 156.573 82.2744C138.815 99.6897 128.688 129.563 106.675 141.866C81.9473 155.665 48.7119 164.565 30.9531 209.367C13.1944 254.169 30.4378 305.114 67.5096 327.724C104.581 350.333 157.056 313.858 208.058 303.478C259.061 293.098 378.071 349.883 385.72 227.085Z" fill="white"/>
<path opacity="0.3" d="M314.464 56.3766C314.464 56.3766 314.464 34.7895 289.589 34.2906C268.419 33.8979 267.503 50.7242 265.188 58.6997C262.873 66.6752 259.085 58.6997 250.169 60.5729C241.253 62.4461 241.253 71.3705 239.838 77.0065C238.423 82.6425 232.312 76.074 225.768 77.9636C219.224 79.8532 215.911 86.8798 214.504 89.7019C213.097 92.524 203.412 88.254 197.711 90.3317C192.009 92.4095 185.866 101.432 185.866 101.432H352.476C352.476 101.432 359.02 85.9473 347.789 75.6159C336.558 65.2846 329.016 71.8613 321.973 68.5811C314.93 65.3009 314.464 56.3766 314.464 56.3766Z" stroke="black" stroke-miterlimit="10"/>
<path opacity="0.3" d="M88.5077 138.504C88.5077 138.504 88.5077 125.318 73.3257 125.031C60.4013 124.794 59.8614 135.06 58.4217 139.935C56.982 144.811 54.6998 139.935 49.2519 141.08C43.804 142.226 43.8122 147.674 42.9533 151.109C42.0944 154.545 38.3643 150.537 34.3561 151.682C30.3479 152.827 28.3357 157.13 27.4768 158.847C26.6179 160.565 20.7037 157.964 17.2272 159.232C13.7507 160.5 9.99609 166.054 9.99609 166.054H111.723C111.723 166.054 115.731 156.598 108.86 150.291C101.988 143.984 97.4076 148.001 93.0967 145.997C88.7859 143.993 88.5077 138.504 88.5077 138.504Z" stroke="black" stroke-miterlimit="10"/>
<g opacity="0.3">
<path opacity="0.3" d="M77.1868 243.838H69.0068V251.061H77.1868V243.838Z" stroke="black" stroke-miterlimit="10"/>
<path opacity="0.3" d="M63.4768 248.214H60.1558V251.061H63.4768V248.214Z" stroke="black" stroke-miterlimit="10"/>
<path opacity="0.3" d="M396.329 289.441H365.319V232.132H367.389V226.202H294.717V232.132H297.237V317.359H278.177V134.512H212.819V272.795H188.917V257.482H195.175V251.011H142.921V158.25H146.3V153.391H82.8718V158.25H87.4199V251.167H37.2847V317.629H10.9614" stroke="black" stroke-miterlimit="10"/>
<path opacity="0.3" d="M280.779 132.516H209.907V134.504H280.779V132.516Z" stroke="black" stroke-miterlimit="10"/>
<path opacity="0.3" d="M101.08 163.641H93.0967V171.126H101.08V163.641Z" stroke="black" stroke-miterlimit="10"/>
<path opacity="0.3" d="M112.786 163.641H104.802V171.126H112.786V163.641Z" stroke="black" stroke-miterlimit="10"/>
<path opacity="0.3" d="M124.491 163.641H116.508V171.126H124.491V163.641Z" stroke="black" stroke-miterlimit="10"/>
<path opacity="0.3" d="M136.205 163.641H128.222V171.126H136.205V163.641Z" stroke="black" stroke-miterlimit="10"/>
<path opacity="0.3" d="M101.08 175.502H93.0967V182.987H101.08V175.502Z" stroke="black" stroke-miterlimit="10"/>
<path opacity="0.3" d="M112.786 175.502H104.802V182.987H112.786V175.502Z" stroke="black" stroke-miterlimit="10"/>
<path opacity="0.3" d="M124.491 175.502H116.508V182.987H124.491V175.502Z" stroke="black" stroke-miterlimit="10"/>
<path opacity="0.3" d="M136.205 175.502H128.222V182.987H136.205V175.502Z" stroke="black" stroke-miterlimit="10"/>
<path opacity="0.3" d="M101.08 187.371H93.0967V194.856H101.08V187.371Z" stroke="black" stroke-miterlimit="10"/>
<path opacity="0.3" d="M112.786 187.371H104.802V194.856H112.786V187.371Z" stroke="black" stroke-miterlimit="10"/>
<path opacity="0.3" d="M124.491 187.371H116.508V194.856H124.491V187.371Z" stroke="black" stroke-miterlimit="10"/>
<path opacity="0.3" d="M136.205 187.371H128.222V194.856H136.205V187.371Z" stroke="black" stroke-miterlimit="10"/>
<path opacity="0.3" d="M101.08 199.232H93.0967V206.717H101.08V199.232Z" stroke="black" stroke-miterlimit="10"/>
<path opacity="0.3" d="M112.786 199.232H104.802V206.717H112.786V199.232Z" stroke="black" stroke-miterlimit="10"/>
<path opacity="0.3" d="M124.491 199.232H116.508V206.717H124.491V199.232Z" stroke="black" stroke-miterlimit="10"/>
<path opacity="0.3" d="M136.205 199.232H128.222V206.717H136.205V199.232Z" stroke="black" stroke-miterlimit="10"/>
<path opacity="0.3" d="M101.08 211.101H93.0967V218.586H101.08V211.101Z" stroke="black" stroke-miterlimit="10"/>
<path opacity="0.3" d="M112.786 211.101H104.802V218.586H112.786V211.101Z" stroke="black" stroke-miterlimit="10"/>
<path opacity="0.3" d="M124.491 211.101H116.508V218.586H124.491V211.101Z" stroke="black" stroke-miterlimit="10"/>
<path opacity="0.3" d="M136.205 211.101H128.222V218.586H136.205V211.101Z" stroke="black" stroke-miterlimit="10"/>
<path opacity="0.3" d="M101.08 222.97H93.0967V230.455H101.08V222.97Z" stroke="black" stroke-miterlimit="10"/>
<path opacity="0.3" d="M112.786 222.97H104.802V230.455H112.786V222.97Z" stroke="black" stroke-miterlimit="10"/>
<path opacity="0.3" d="M124.491 222.97H116.508V230.455H124.491V222.97Z" stroke="black" stroke-miterlimit="10"/>
<path opacity="0.3" d="M136.205 222.97H128.222V230.455H136.205V222.97Z" stroke="black" stroke-miterlimit="10"/>
<path opacity="0.3" d="M101.08 234.831H93.0967V242.316H101.08V234.831Z" stroke="black" stroke-miterlimit="10"/>
<path opacity="0.3" d="M112.786 234.831H104.802V242.316H112.786V234.831Z" stroke="black" stroke-miterlimit="10"/>
<path opacity="0.3" d="M124.491 234.831H116.508V242.316H124.491V234.831Z" stroke="black" stroke-miterlimit="10"/>
<path opacity="0.3" d="M136.205 234.831H128.222V242.316H136.205V234.831Z" stroke="black" stroke-miterlimit="10"/>
<path opacity="0.3" d="M101.08 246.701H93.0967V254.185H101.08V246.701Z" stroke="black" stroke-miterlimit="10"/>
<path opacity="0.3" d="M112.786 246.701H104.802V254.185H112.786V246.701Z" stroke="black" stroke-miterlimit="10"/>
<path opacity="0.3" d="M124.491 246.701H116.508V254.185H124.491V246.701Z" stroke="black" stroke-miterlimit="10"/>
<path opacity="0.3" d="M136.205 246.701H128.222V254.185H136.205V246.701Z" stroke="black" stroke-miterlimit="10"/>
<path opacity="0.3" d="M101.08 257.547H93.0967V265.032H101.08V257.547Z" stroke="black" stroke-miterlimit="10"/>
<path opacity="0.3" d="M112.786 257.547H104.802V265.032H112.786V257.547Z" stroke="black" stroke-miterlimit="10"/>
<path opacity="0.3" d="M124.491 257.547H116.508V265.032H124.491V257.547Z" stroke="black" stroke-miterlimit="10"/>
<path opacity="0.3" d="M136.205 257.547H128.222V265.032H136.205V257.547Z" stroke="black" stroke-miterlimit="10"/>
<path opacity="0.3" d="M101.08 269.416H93.0967V276.901H101.08V269.416Z" stroke="black" stroke-miterlimit="10"/>
<path opacity="0.3" d="M112.786 269.416H104.802V276.901H112.786V269.416Z" stroke="black" stroke-miterlimit="10"/>
<path opacity="0.3" d="M124.491 269.416H116.508V276.901H124.491V269.416Z" stroke="black" stroke-miterlimit="10"/>
<path opacity="0.3" d="M136.205 269.416H128.222V276.901H136.205V269.416Z" stroke="black" stroke-miterlimit="10"/>
<path opacity="0.3" d="M101.08 281.277H93.0967V288.762H101.08V281.277Z" stroke="black" stroke-miterlimit="10"/>
<path opacity="0.3" d="M112.786 281.277H104.802V288.762H112.786V281.277Z" stroke="black" stroke-miterlimit="10"/>
<path opacity="0.3" d="M124.491 281.277H116.508V288.762H124.491V281.277Z" stroke="black" stroke-miterlimit="10"/>
<path opacity="0.3" d="M136.205 281.277H128.222V288.762H136.205V281.277Z" stroke="black" stroke-miterlimit="10"/>
<path opacity="0.3" d="M101.08 293.147H93.0967V300.631H101.08V293.147Z" stroke="black" stroke-miterlimit="10"/>
<path opacity="0.3" d="M112.786 293.147H104.802V300.631H112.786V293.147Z" stroke="black" stroke-miterlimit="10"/>
<path opacity="0.3" d="M124.491 293.147H116.508V300.631H124.491V293.147Z" stroke="black" stroke-miterlimit="10"/>
<path opacity="0.3" d="M136.205 293.147H128.222V300.631H136.205V293.147Z" stroke="black" stroke-miterlimit="10"/>
<path opacity="0.3" d="M101.08 305.016H93.0967V312.501H101.08V305.016Z" stroke="black" stroke-miterlimit="10"/>
<path opacity="0.3" d="M112.786 305.016H104.802V312.501H112.786V305.016Z" stroke="black" stroke-miterlimit="10"/>
<path opacity="0.3" d="M124.491 305.016H116.508V312.501H124.491V305.016Z" stroke="black" stroke-miterlimit="10"/>
<path opacity="0.3" d="M136.205 305.016H128.222V312.501H136.205V305.016Z" stroke="black" stroke-miterlimit="10"/>
<path opacity="0.3" d="M101.08 316.877H93.0967V324.362H101.08V316.877Z" stroke="black" stroke-miterlimit="10"/>
<path opacity="0.3" d="M112.786 316.877H104.802V324.362H112.786V316.877Z" stroke="black" stroke-miterlimit="10"/>
<path opacity="0.3" d="M124.491 316.877H116.508V324.362H124.491V316.877Z" stroke="black" stroke-miterlimit="10"/>
<path opacity="0.3" d="M136.205 316.877H128.222V324.362H136.205V316.877Z" stroke="black" stroke-miterlimit="10"/>
<path opacity="0.3" d="M101.08 328.746H93.0967V336.231H101.08V328.746Z" stroke="black" stroke-miterlimit="10"/>
<path opacity="0.3" d="M112.786 328.746H104.802V336.231H112.786V328.746Z" stroke="black" stroke-miterlimit="10"/>
<path opacity="0.3" d="M124.491 328.746H116.508V336.231H124.491V328.746Z" stroke="black" stroke-miterlimit="10"/>
<path opacity="0.3" d="M136.205 328.746H128.222V336.231H136.205V328.746Z" stroke="black" stroke-miterlimit="10"/>
<path opacity="0.3" d="M101.08 340.607H93.0967V348.092H101.08V340.607Z" stroke="black" stroke-miterlimit="10"/>
<path opacity="0.3" d="M112.786 340.607H104.802V348.092H112.786V340.607Z" stroke="black" stroke-miterlimit="10"/>
<path opacity="0.3" d="M124.491 340.607H116.508V348.092H124.491V340.607Z" stroke="black" stroke-miterlimit="10"/>
<path opacity="0.3" d="M136.205 340.607H128.222V348.092H136.205V340.607Z" stroke="black" stroke-miterlimit="10"/>
<path opacity="0.3" d="M146.807 257.547H138.823V265.032H146.807V257.547Z" stroke="black" stroke-miterlimit="10"/>
<path opacity="0.3" d="M158.52 257.547H150.537V265.032H158.52V257.547Z" stroke="black" stroke-miterlimit="10"/>
<path opacity="0.3" d="M170.226 257.547H162.242V265.032H170.226V257.547Z" stroke="black" stroke-miterlimit="10"/>
<path opacity="0.3" d="M181.931 257.547H173.948V265.032H181.931V257.547Z" stroke="black" stroke-miterlimit="10"/>
<path opacity="0.3" d="M146.807 269.416H138.823V276.901H146.807V269.416Z" stroke="black" stroke-miterlimit="10"/>
<path opacity="0.3" d="M158.52 269.416H150.537V276.901H158.52V269.416Z" stroke="black" stroke-miterlimit="10"/>
<path opacity="0.3" d="M170.226 269.416H162.242V276.901H170.226V269.416Z" stroke="black" stroke-miterlimit="10"/>
<path opacity="0.3" d="M181.931 269.416H173.948V276.901H181.931V269.416Z" stroke="black" stroke-miterlimit="10"/>
<path opacity="0.3" d="M146.807 281.277H138.823V288.762H146.807V281.277Z" stroke="black" stroke-miterlimit="10"/>
<path opacity="0.3" d="M158.52 281.277H150.537V288.762H158.52V281.277Z" stroke="black" stroke-miterlimit="10"/>
<path opacity="0.3" d="M170.226 281.277H162.242V288.762H170.226V281.277Z" stroke="black" stroke-miterlimit="10"/>
<path opacity="0.3" d="M181.931 281.277H173.948V288.762H181.931V281.277Z" stroke="black" stroke-miterlimit="10"/>
<path opacity="0.3" d="M146.807 293.147H138.823V300.631H146.807V293.147Z" stroke="black" stroke-miterlimit="10"/>
<path opacity="0.3" d="M158.52 293.147H150.537V300.631H158.52V293.147Z" stroke="black" stroke-miterlimit="10"/>
<path opacity="0.3" d="M170.226 293.147H162.242V300.631H170.226V293.147Z" stroke="black" stroke-miterlimit="10"/>
<path opacity="0.3" d="M181.931 293.147H173.948V300.631H181.931V293.147Z" stroke="black" stroke-miterlimit="10"/>
<path opacity="0.3" d="M146.807 305.016H138.823V312.501H146.807V305.016Z" stroke="black" stroke-miterlimit="10"/>
<path opacity="0.3" d="M158.52 305.016H150.537V312.501H158.52V305.016Z" stroke="black" stroke-miterlimit="10"/>
<path opacity="0.3" d="M170.226 305.016H162.242V312.501H170.226V305.016Z" stroke="black" stroke-miterlimit="10"/>
<path opacity="0.3" d="M181.931 305.016H173.948V312.501H181.931V305.016Z" stroke="black" stroke-miterlimit="10"/>
<path opacity="0.3" d="M146.807 316.877H138.823V324.362H146.807V316.877Z" stroke="black" stroke-miterlimit="10"/>
<path opacity="0.3" d="M158.52 316.877H150.537V324.362H158.52V316.877Z" stroke="black" stroke-miterlimit="10"/>
<path opacity="0.3" d="M170.226 316.877H162.242V324.362H170.226V316.877Z" stroke="black" stroke-miterlimit="10"/>
<path opacity="0.3" d="M181.931 316.877H173.948V324.362H181.931V316.877Z" stroke="black" stroke-miterlimit="10"/>
<path opacity="0.3" d="M146.807 328.746H138.823V336.231H146.807V328.746Z" stroke="black" stroke-miterlimit="10"/>
<path opacity="0.3" d="M158.52 328.746H150.537V336.231H158.52V328.746Z" stroke="black" stroke-miterlimit="10"/>
<path opacity="0.3" d="M170.226 328.746H162.242V336.231H170.226V328.746Z" stroke="black" stroke-miterlimit="10"/>
<path opacity="0.3" d="M181.931 328.746H173.948V336.231H181.931V328.746Z" stroke="black" stroke-miterlimit="10"/>
<path opacity="0.3" d="M146.807 340.607H138.823V348.092H146.807V340.607Z" stroke="black" stroke-miterlimit="10"/>
<path opacity="0.3" d="M158.52 340.607H150.537V348.092H158.52V340.607Z" stroke="black" stroke-miterlimit="10"/>
<path opacity="0.3" d="M170.226 340.607H162.242V348.092H170.226V340.607Z" stroke="black" stroke-miterlimit="10"/>
<path opacity="0.3" d="M181.931 340.607H173.948V348.092H181.931V340.607Z" stroke="black" stroke-miterlimit="10"/>
<path opacity="0.3" d="M54.7 257.547H46.7163V265.032H54.7V257.547Z" stroke="black" stroke-miterlimit="10"/>
<path opacity="0.3" d="M66.4139 257.547H58.4302V265.032H66.4139V257.547Z" stroke="black" stroke-miterlimit="10"/>
<path opacity="0.3" d="M78.1194 257.547H70.1357V265.032H78.1194V257.547Z" stroke="black" stroke-miterlimit="10"/>
<path opacity="0.3" d="M89.825 257.547H81.8413V265.032H89.825V257.547Z" stroke="black" stroke-miterlimit="10"/>
<path opacity="0.3" d="M54.7 269.416H46.7163V276.901H54.7V269.416Z" stroke="black" stroke-miterlimit="10"/>
<path opacity="0.3" d="M66.4139 269.416H58.4302V276.901H66.4139V269.416Z" stroke="black" stroke-miterlimit="10"/>
<path opacity="0.3" d="M78.1194 269.416H70.1357V276.901H78.1194V269.416Z" stroke="black" stroke-miterlimit="10"/>
<path opacity="0.3" d="M89.825 269.416H81.8413V276.901H89.825V269.416Z" stroke="black" stroke-miterlimit="10"/>
<path opacity="0.3" d="M54.7 281.277H46.7163V288.762H54.7V281.277Z" stroke="black" stroke-miterlimit="10"/>
<path opacity="0.3" d="M66.4139 281.277H58.4302V288.762H66.4139V281.277Z" stroke="black" stroke-miterlimit="10"/>
<path opacity="0.3" d="M78.1194 281.277H70.1357V288.762H78.1194V281.277Z" stroke="black" stroke-miterlimit="10"/>
<path opacity="0.3" d="M89.825 281.277H81.8413V288.762H89.825V281.277Z" stroke="black" stroke-miterlimit="10"/>
<path opacity="0.3" d="M54.7 293.147H46.7163V300.631H54.7V293.147Z" stroke="black" stroke-miterlimit="10"/>
<path opacity="0.3" d="M66.4139 293.147H58.4302V300.631H66.4139V293.147Z" stroke="black" stroke-miterlimit="10"/>
<path opacity="0.3" d="M78.1194 293.147H70.1357V300.631H78.1194V293.147Z" stroke="black" stroke-miterlimit="10"/>
<path opacity="0.3" d="M89.825 293.147H81.8413V300.631H89.825V293.147Z" stroke="black" stroke-miterlimit="10"/>
<path opacity="0.3" d="M54.7 305.016H46.7163V312.501H54.7V305.016Z" stroke="black" stroke-miterlimit="10"/>
<path opacity="0.3" d="M66.4139 305.016H58.4302V312.501H66.4139V305.016Z" stroke="black" stroke-miterlimit="10"/>
<path opacity="0.3" d="M78.1194 305.016H70.1357V312.501H78.1194V305.016Z" stroke="black" stroke-miterlimit="10"/>
<path opacity="0.3" d="M89.825 305.016H81.8413V312.501H89.825V305.016Z" stroke="black" stroke-miterlimit="10"/>
<path opacity="0.3" d="M54.7 316.877H46.7163V324.362H54.7V316.877Z" stroke="black" stroke-miterlimit="10"/>
<path opacity="0.3" d="M66.4139 316.877H58.4302V324.362H66.4139V316.877Z" stroke="black" stroke-miterlimit="10"/>
<path opacity="0.3" d="M78.1194 316.877H70.1357V324.362H78.1194V316.877Z" stroke="black" stroke-miterlimit="10"/>
<path opacity="0.3" d="M89.825 316.877H81.8413V324.362H89.825V316.877Z" stroke="black" stroke-miterlimit="10"/>
<path opacity="0.3" d="M54.7 328.746H46.7163V336.231H54.7V328.746Z" stroke="black" stroke-miterlimit="10"/>
<path opacity="0.3" d="M66.4139 328.746H58.4302V336.231H66.4139V328.746Z" stroke="black" stroke-miterlimit="10"/>
<path opacity="0.3" d="M78.1194 328.746H70.1357V336.231H78.1194V328.746Z" stroke="black" stroke-miterlimit="10"/>
<path opacity="0.3" d="M89.825 328.746H81.8413V336.231H89.825V328.746Z" stroke="black" stroke-miterlimit="10"/>
<path opacity="0.3" d="M54.7 340.607H46.7163V348.092H54.7V340.607Z" stroke="black" stroke-miterlimit="10"/>
<path opacity="0.3" d="M66.4139 340.607H58.4302V348.092H66.4139V340.607Z" stroke="black" stroke-miterlimit="10"/>
<path opacity="0.3" d="M78.1194 340.607H70.1357V348.092H78.1194V340.607Z" stroke="black" stroke-miterlimit="10"/>
<path opacity="0.3" d="M89.825 340.607H81.8413V348.092H89.825V340.607Z" stroke="black" stroke-miterlimit="10"/>
<path opacity="0.3" d="M316.255 234.292H308.271V241.776H316.255V234.292Z" stroke="black" stroke-miterlimit="10"/>
<path opacity="0.3" d="M327.961 234.292H319.978V241.776H327.961V234.292Z" stroke="black" stroke-miterlimit="10"/>
<path opacity="0.3" d="M339.666 234.292H331.683V241.776H339.666V234.292Z" stroke="black" stroke-miterlimit="10"/>
<path opacity="0.3" d="M351.38 234.292H343.396V241.776H351.38V234.292Z" stroke="black" stroke-miterlimit="10"/>
<path opacity="0.3" d="M316.255 246.161H308.271V253.645H316.255V246.161Z" stroke="black" stroke-miterlimit="10"/>
<path opacity="0.3" d="M327.961 246.161H319.978V253.645H327.961V246.161Z" stroke="black" stroke-miterlimit="10"/>
<path opacity="0.3" d="M339.666 246.161H331.683V253.645H339.666V246.161Z" stroke="black" stroke-miterlimit="10"/>
<path opacity="0.3" d="M351.38 246.161H343.396V253.645H351.38V246.161Z" stroke="black" stroke-miterlimit="10"/>
<path opacity="0.3" d="M316.255 258.022H308.271V265.506H316.255V258.022Z" stroke="black" stroke-miterlimit="10"/>
<path opacity="0.3" d="M327.961 258.022H319.978V265.506H327.961V258.022Z" stroke="black" stroke-miterlimit="10"/>
<path opacity="0.3" d="M339.666 258.022H331.683V265.506H339.666V258.022Z" stroke="black" stroke-miterlimit="10"/>
<path opacity="0.3" d="M351.38 258.022H343.396V265.506H351.38V258.022Z" stroke="black" stroke-miterlimit="10"/>
<path opacity="0.3" d="M316.255 269.891H308.271V277.376H316.255V269.891Z" stroke="black" stroke-miterlimit="10"/>
<path opacity="0.3" d="M327.961 269.891H319.978V277.376H327.961V269.891Z" stroke="black" stroke-miterlimit="10"/>
<path opacity="0.3" d="M339.666 269.891H331.683V277.376H339.666V269.891Z" stroke="black" stroke-miterlimit="10"/>
<path opacity="0.3" d="M351.38 269.891H343.396V277.376H351.38V269.891Z" stroke="black" stroke-miterlimit="10"/>
<path opacity="0.3" d="M316.255 281.752H308.271V289.237H316.255V281.752Z" stroke="black" stroke-miterlimit="10"/>
<path opacity="0.3" d="M327.961 281.752H319.978V289.237H327.961V281.752Z" stroke="black" stroke-miterlimit="10"/>
<path opacity="0.3" d="M339.666 281.752H331.683V289.237H339.666V281.752Z" stroke="black" stroke-miterlimit="10"/>
<path opacity="0.3" d="M351.38 281.752H343.396V289.237H351.38V281.752Z" stroke="black" stroke-miterlimit="10"/>
<path opacity="0.3" d="M316.255 293.621H308.271V301.106H316.255V293.621Z" stroke="black" stroke-miterlimit="10"/>
<path opacity="0.3" d="M327.961 293.621H319.978V301.106H327.961V293.621Z" stroke="black" stroke-miterlimit="10"/>
<path opacity="0.3" d="M339.666 293.621H331.683V301.106H339.666V293.621Z" stroke="black" stroke-miterlimit="10"/>
<path opacity="0.3" d="M351.38 293.621H343.396V301.106H351.38V293.621Z" stroke="black" stroke-miterlimit="10"/>
<path opacity="0.3" d="M316.255 305.482H308.271V312.967H316.255V305.482Z" stroke="black" stroke-miterlimit="10"/>
<path opacity="0.3" d="M327.961 305.482H319.978V312.967H327.961V305.482Z" stroke="black" stroke-miterlimit="10"/>
<path opacity="0.3" d="M339.666 305.482H331.683V312.967H339.666V305.482Z" stroke="black" stroke-miterlimit="10"/>
<path opacity="0.3" d="M351.38 305.482H343.396V312.967H351.38V305.482Z" stroke="black" stroke-miterlimit="10"/>
<path opacity="0.3" d="M316.255 317.351H308.271V324.836H316.255V317.351Z" stroke="black" stroke-miterlimit="10"/>
<path opacity="0.3" d="M327.961 317.351H319.978V324.836H327.961V317.351Z" stroke="black" stroke-miterlimit="10"/>
<path opacity="0.3" d="M339.666 317.351H331.683V324.836H339.666V317.351Z" stroke="black" stroke-miterlimit="10"/>
<path opacity="0.3" d="M351.38 317.351H343.396V324.836H351.38V317.351Z" stroke="black" stroke-miterlimit="10"/>
<path opacity="0.3" d="M218.971 138.831V355.642" stroke="black" stroke-miterlimit="10"/>
<path opacity="0.3" d="M226.889 138.831V355.642" stroke="black" stroke-miterlimit="10"/>
<path opacity="0.3" d="M234.807 138.831V355.642" stroke="black" stroke-miterlimit="10"/>
<path opacity="0.3" d="M242.726 138.831V355.642" stroke="black" stroke-miterlimit="10"/>
<path opacity="0.3" d="M250.644 138.831V355.642" stroke="black" stroke-miterlimit="10"/>
<path opacity="0.3" d="M258.562 138.831V355.642" stroke="black" stroke-miterlimit="10"/>
<path opacity="0.3" d="M266.48 138.831V355.642" stroke="black" stroke-miterlimit="10"/>
<path opacity="0.3" d="M274.398 138.831V355.642" stroke="black" stroke-miterlimit="10"/>
</g>
<path d="M15.6891 315.012C18.0774 315.444 20.5238 315.444 22.912 315.012C22.912 316.476 22.912 318.022 23.0838 319.625C23.2689 321.967 23.6603 324.289 24.2536 326.562V326.644C23.8527 326.006 22.6666 324.272 22.5603 324.149C21.0634 322.423 17.1451 319.953 14.7893 320.959C14.4014 321.135 14.0552 321.392 13.7733 321.712C13.4915 322.031 13.2803 322.407 13.1537 322.814C13.027 323.221 12.9877 323.65 13.0384 324.073C13.0891 324.496 13.2286 324.904 13.4478 325.27C14.3149 326.848 16.4008 327.634 18.094 327.879C20 328.157 24.0163 326.995 24.3354 326.906C25.0028 329.202 25.8226 331.451 26.7894 333.638C27.3374 334.922 27.9346 336.19 28.5481 337.458C28.18 336.918 27.8528 336.443 27.7955 336.378C26.2986 334.652 22.3885 332.19 20.0327 333.188C19.645 333.365 19.2989 333.621 19.0169 333.941C18.7349 334.26 18.5234 334.635 18.3961 335.042C18.2687 335.449 18.2285 335.878 18.2779 336.301C18.3274 336.724 18.4654 337.132 18.683 337.499C19.5582 339.086 21.6441 339.871 23.3374 340.116C25.0307 340.362 28.499 339.437 29.407 339.184L30.1186 340.632C31.2884 342.946 32.4581 345.253 33.5297 347.552C33.9142 348.37 34.2577 349.188 34.6095 350.006C34.2823 349.531 34.0041 349.131 33.955 349.073C32.4581 347.339 28.5481 344.877 26.184 345.883C25.7973 346.06 25.4521 346.316 25.1711 346.635C24.89 346.954 24.6793 347.329 24.5527 347.735C24.4262 348.141 24.3865 348.569 24.4365 348.991C24.4864 349.414 24.6248 349.821 24.8425 350.186C25.7178 351.773 27.8037 352.558 29.4888 352.803C31.1738 353.049 34.315 352.223 35.3947 351.92C35.7301 352.738 36.0573 353.605 36.3436 354.431C36.5236 355.004 36.7362 355.535 36.8835 356.124C37.0307 356.713 37.2025 357.261 37.3661 357.826C37.6279 358.922 37.906 360.051 38.135 361.098C38.2986 361.842 38.4459 362.562 38.5931 363.282C38.2168 362.464 37.4643 360.902 37.3825 360.779C36.1637 358.84 32.679 355.814 30.1922 356.443C29.778 356.559 29.3931 356.761 29.063 357.036C28.733 357.312 28.4654 357.654 28.2781 358.041C28.0908 358.428 27.9881 358.85 27.9768 359.28C27.9655 359.71 28.046 360.137 28.2127 360.533C28.8344 362.227 30.773 363.323 32.409 363.805C34.2086 364.354 38.1923 363.855 38.6913 363.805C38.9285 364.992 39.1493 366.153 39.3457 367.249C39.4929 368.067 39.6238 368.885 39.7465 369.703H41.3416C41.1862 368.844 41.0226 367.945 40.8344 367.012C40.5972 365.801 40.3191 364.517 40.0164 363.192C41.2153 362.718 42.3845 362.171 43.5175 361.556C44.8263 362.979 48.1883 364.64 48.63 364.828C48.1719 365.949 47.7138 367.037 47.2639 368.059C47.0267 368.624 46.7895 369.155 46.5522 369.695H48.2619C48.4009 369.352 48.5482 369.016 48.6872 368.664C49.1617 367.519 49.6361 366.292 50.1187 365.024C50.6014 365.131 54.5441 365.932 56.3846 365.515C58.0206 365.139 60.0738 364.198 60.8182 362.546C61.0069 362.167 61.1142 361.752 61.1331 361.329C61.1521 360.906 61.0822 360.484 60.9281 360.089C60.774 359.695 60.5391 359.337 60.2384 359.039C59.9377 358.74 59.5779 358.508 59.1822 358.358C56.7282 357.54 53.0472 360.296 51.6893 362.137C51.6075 362.243 50.8713 363.519 50.4132 364.337C50.6095 363.814 50.8059 363.315 50.994 362.783C51.3866 361.728 51.7384 360.656 52.1228 359.511C52.2946 358.955 52.4664 358.39 52.63 357.818C52.7936 357.245 52.9327 356.632 53.0881 356.043C53.4235 354.652 53.6852 353.229 53.9061 351.789C54.8386 352.133 58.1433 353.278 59.8529 353.163C61.5625 353.049 63.6975 352.411 64.6873 350.897C64.9319 350.548 65.1003 350.152 65.1814 349.733C65.2626 349.315 65.2547 348.884 65.1582 348.469C65.0617 348.054 64.8789 347.663 64.6216 347.324C64.3643 346.984 64.0383 346.702 63.6648 346.497C61.3499 345.245 57.2599 347.413 55.6239 349.024C55.5257 349.122 54.495 350.415 53.9388 351.135C54.0697 350.268 54.2169 349.401 54.3233 348.525C54.6341 345.981 54.8795 343.396 55.1413 340.828L55.3867 338.464C55.722 338.587 59.6157 340.043 61.538 339.904C63.2395 339.789 65.3826 339.159 66.3724 337.646C66.617 337.297 66.7854 336.9 66.8665 336.482C66.9477 336.063 66.9397 335.632 66.8433 335.217C66.7468 334.802 66.564 334.412 66.3067 334.072C66.0494 333.732 65.7234 333.45 65.3499 333.245C63.0758 332.075 58.9859 334.235 57.3662 335.854C57.2435 335.977 55.7302 337.834 55.403 338.308C55.5912 336.574 55.7875 334.848 56.0492 333.155C56.3987 330.868 56.896 328.605 57.538 326.382C57.6852 326.439 61.7507 328.018 63.7221 327.838C65.4235 327.715 67.5667 327.085 68.5483 325.572C68.7918 325.224 68.9595 324.828 69.0405 324.411C69.1214 323.994 69.1138 323.564 69.0182 323.15C68.9226 322.736 68.7411 322.347 68.4854 322.007C68.2297 321.668 67.9056 321.386 67.5339 321.18C65.2517 320.002 61.1699 322.169 59.5503 323.781C59.4439 323.887 58.3069 325.302 57.7834 325.989L57.6525 325.916C58.3542 323.699 59.255 321.549 60.3437 319.494C60.9245 318.349 61.5462 317.294 62.1761 316.28C62.9041 316.64 66.266 318.267 68.0329 318.333C69.7998 318.398 71.9348 318.014 73.08 316.615C73.3609 316.295 73.5713 315.92 73.6977 315.513C73.824 315.107 73.8633 314.678 73.8132 314.255C73.7631 313.832 73.6245 313.425 73.4066 313.059C73.1887 312.694 72.8962 312.378 72.5483 312.132C70.4133 310.717 66.1188 312.419 64.3683 313.85C64.3029 313.899 63.853 314.349 63.3703 314.832C63.3703 314.725 63.3703 314.603 63.3703 314.464C63.3703 314.325 63.5094 314.235 63.583 314.128C64.6546 312.492 65.7344 311.102 66.6996 309.858C67.2558 309.155 67.7712 308.533 68.262 307.952C69.1618 307.952 72.7937 307.83 74.3806 307.085C75.9675 306.341 77.6526 304.999 78.0698 303.233C78.1725 302.819 78.1869 302.388 78.1121 301.969C78.0374 301.549 77.8751 301.15 77.6359 300.798C77.3967 300.445 77.0859 300.147 76.7237 299.922C76.3616 299.698 75.9562 299.552 75.534 299.494C72.9818 299.224 69.9552 302.717 68.99 304.803C68.9082 304.983 67.9757 307.961 68.0248 307.961H68.082C67.5994 308.509 67.084 309.106 66.5442 309.76C65.5462 310.979 64.4419 312.37 63.3376 313.948C63.3376 311.494 62.8795 306.366 59.6239 306.055C55.3294 305.646 54.1024 310.554 56.7609 313.212C58.2862 314.634 60.313 315.393 62.3969 315.323C61.5789 316.55 60.7609 317.867 59.9429 319.306C58.8048 321.359 57.8496 323.508 57.0881 325.728V325.809C57.0881 325.057 57.0881 322.963 57.0881 322.799C56.7936 320.525 54.8958 316.312 52.3682 315.846C51.9476 315.78 51.5178 315.804 51.1069 315.915C50.696 316.026 50.3132 316.223 49.9836 316.493C49.6539 316.762 49.3848 317.098 49.1939 317.479C49.0029 317.859 48.8944 318.276 48.8754 318.701C48.7281 320.509 50.0369 322.308 51.3294 323.454C52.7691 324.738 56.7609 325.981 57.0554 326.079C56.3385 328.359 55.7755 330.685 55.3703 333.041C55.1249 334.407 54.9204 335.797 54.7323 337.196C54.7323 336.542 54.7323 335.961 54.7323 335.879C54.4378 333.613 52.54 329.4 50.0124 328.934C49.5918 328.868 49.162 328.892 48.7511 329.003C48.3402 329.114 47.9574 329.311 47.6277 329.581C47.2981 329.85 47.029 330.186 46.838 330.567C46.6471 330.947 46.5385 331.364 46.5195 331.789C46.3723 333.589 47.6811 335.396 48.9735 336.533C50.266 337.67 53.6525 338.816 54.5523 339.102C54.4869 339.642 54.4132 340.173 54.3478 340.738C54.0451 343.306 53.7425 345.875 53.3826 348.386C53.2517 349.27 53.0881 350.137 52.9327 351.004C52.9327 350.431 52.9327 349.94 52.9327 349.867C52.6382 347.601 50.7404 343.388 48.221 342.922C47.7999 342.856 47.3698 342.879 46.9584 342.991C46.547 343.102 46.1638 343.299 45.8335 343.568C45.5032 343.838 45.2334 344.173 45.0415 344.554C44.8496 344.934 44.7401 345.351 44.7199 345.777C44.5727 347.576 45.8815 349.384 47.1739 350.521C48.4664 351.658 51.5175 352.689 52.5809 353.041C52.3928 353.924 52.2128 354.807 51.992 355.658C51.8284 356.231 51.7057 356.795 51.5093 357.368L50.9695 359.053C50.585 360.108 50.1515 361.204 49.7915 362.227C49.5134 362.938 49.2435 363.617 48.9735 364.296C49.1126 363.413 49.3498 361.687 49.3498 361.54C49.328 359.526 48.784 357.554 47.7711 355.814C47.797 355.335 47.7136 354.857 47.5272 354.415C47.3408 353.973 47.0563 353.58 46.6952 353.265C46.3342 352.949 45.906 352.72 45.4433 352.595C44.9806 352.47 44.4955 352.452 44.0246 352.542C41.5706 353.204 39.9346 357.548 39.861 359.838C39.861 359.969 39.9428 361.474 40.0083 362.374C39.8855 361.834 39.771 361.311 39.632 360.738C39.3784 359.642 39.0839 358.554 38.7731 357.384C38.6095 356.828 38.4377 356.264 38.2659 355.691C38.0941 355.118 37.8651 354.546 37.6606 353.957C37.178 352.623 36.6136 351.29 36.0246 349.957C36.9817 349.728 40.3764 348.861 41.7506 347.814C43.1248 346.767 44.54 345.073 44.5318 343.266C44.5434 342.84 44.4655 342.417 44.3029 342.024C44.1404 341.63 43.8969 341.275 43.5883 340.982C43.2798 340.689 42.913 340.464 42.5118 340.322C42.1107 340.18 41.6841 340.124 41.2598 340.157C38.7158 340.435 36.499 344.492 36.041 346.701C36.041 346.84 35.861 348.493 35.7955 349.392C35.4274 348.574 35.0675 347.797 34.6749 347.004C33.5379 344.713 32.3109 342.423 31.1002 340.141C30.7321 339.437 30.3722 338.734 30.0041 338.038C30.3477 337.957 34.4049 337.016 35.9264 335.846C37.2843 334.807 38.724 333.106 38.7076 331.29C38.7194 330.865 38.6414 330.442 38.4788 330.049C38.3162 329.656 38.0726 329.302 37.7639 329.009C37.4551 328.717 37.0882 328.493 36.6871 328.351C36.2859 328.21 35.8595 328.155 35.4356 328.19C32.8835 328.468 30.6749 332.525 30.2086 334.734C30.2086 334.906 29.9632 337.27 29.9387 337.875C29.1207 336.329 28.3518 334.783 27.6401 333.229C26.6644 331.132 25.8282 328.973 25.137 326.766C25.2924 326.766 29.5297 325.768 31.092 324.566C32.4499 323.527 33.8896 321.826 33.8732 320.018C33.8849 319.592 33.8069 319.169 33.6444 318.776C33.4818 318.383 33.2384 318.028 32.9298 317.735C32.6212 317.442 32.2545 317.217 31.8533 317.074C31.4521 316.932 31.0255 316.876 30.6012 316.91C28.0491 317.188 25.8405 321.245 25.3742 323.454C25.3742 323.601 25.1861 325.409 25.1206 326.267H24.9816C24.3436 324.028 23.9056 321.737 23.6728 319.421C23.5337 318.145 23.4683 316.926 23.4274 315.732C24.2454 315.633 27.9182 315.143 29.4479 314.218C30.9775 313.294 32.5236 311.764 32.7199 309.997C32.7787 309.576 32.748 309.147 32.6297 308.738C32.5114 308.329 32.3082 307.95 32.0334 307.625C31.7586 307.3 31.4183 307.036 31.0348 306.852C30.6513 306.667 30.2332 306.566 29.8078 306.554C27.2393 306.554 24.5971 310.341 23.8936 312.517C23.8936 312.631 23.5992 313.883 23.4274 314.791C23.4274 314.251 23.4274 313.695 23.4274 313.155C23.4274 311.216 23.5501 309.441 23.6728 307.871C23.7464 306.979 23.8364 306.177 23.9264 305.417C24.6626 304.901 27.6319 302.815 28.5399 301.327C29.4479 299.838 30.1759 297.76 29.497 296.075C29.3533 295.674 29.127 295.308 28.8328 295C28.5386 294.692 28.1829 294.449 27.7889 294.287C27.3949 294.125 26.9713 294.047 26.5455 294.06C26.1196 294.072 25.7011 294.173 25.317 294.357C23.0429 295.535 22.4458 300.083 22.8221 302.374C22.8221 302.57 23.7137 305.564 23.7546 305.539H23.7955C23.6973 306.267 23.5992 307.036 23.5092 307.887C23.3538 309.458 23.1902 311.241 23.1411 313.188C23.1411 313.539 23.1411 313.908 23.1411 314.276C22.1595 312.77 19.0511 308.55 15.7791 309.449C11.4928 310.668 12.4253 314.243 15.6891 315.012Z" fill="#263238"/>
<path d="M73.4889 334.758C75.0148 335.03 76.5766 335.03 78.1024 334.758C78.0891 335.741 78.1273 336.724 78.217 337.703C78.3291 339.197 78.5755 340.678 78.9531 342.128C78.9558 342.147 78.9558 342.167 78.9531 342.186C78.6996 341.777 77.9388 340.672 77.8734 340.591C76.9163 339.486 74.4214 337.916 72.9163 338.554C72.672 338.671 72.4549 338.838 72.2791 339.044C72.1033 339.25 71.9726 339.491 71.8955 339.751C71.8185 340.01 71.7967 340.283 71.8316 340.552C71.8665 340.821 71.9574 341.079 72.0983 341.31C72.4475 341.78 72.8933 342.168 73.4055 342.451C73.9177 342.733 74.4845 342.902 75.0676 342.946C76.4197 342.938 77.7627 342.726 79.0513 342.317C79.4684 343.785 79.9877 345.223 80.6055 346.619C80.9573 347.437 81.3417 348.255 81.7344 349.073L81.2517 348.386C80.2947 347.282 77.7998 345.711 76.2946 346.349C76.0506 346.466 75.8336 346.632 75.6579 346.837C75.4821 347.043 75.3514 347.283 75.2743 347.542C75.1972 347.801 75.1754 348.073 75.2102 348.341C75.2451 348.609 75.3358 348.867 75.4766 349.098C75.8232 349.57 76.2683 349.961 76.7811 350.243C77.2938 350.526 77.862 350.693 78.446 350.734C79.7584 350.738 81.0636 350.54 82.3151 350.145C82.4706 350.448 82.6178 350.758 82.7732 351.069C83.5176 352.55 84.262 354.014 84.9491 355.486C85.1945 356.002 85.4154 356.517 85.6362 357.032C85.4317 356.73 85.2518 356.476 85.219 356.443C84.262 355.339 81.7671 353.76 80.262 354.398C80.0056 354.507 79.7754 354.668 79.5869 354.873C79.3984 355.078 79.256 355.32 79.1691 355.585C79.0823 355.849 79.0532 356.129 79.0836 356.405C79.1141 356.682 79.2035 356.949 79.3458 357.188C79.695 357.657 80.1407 358.046 80.653 358.328C81.1652 358.61 81.732 358.779 82.3151 358.824C83.5938 358.832 84.8659 358.641 86.0861 358.259C86.2988 358.791 86.5115 359.331 86.6914 359.895C86.806 360.255 86.945 360.599 87.035 360.975C87.125 361.351 87.2395 361.703 87.3377 362.063C87.5094 362.758 87.6894 363.478 87.8285 364.165C87.9348 364.64 88.033 365.098 88.1229 365.556C87.8857 365.041 87.4031 364.043 87.354 363.961C86.536 362.726 84.3438 360.787 82.765 361.196C82.5033 361.269 82.2601 361.397 82.0512 361.571C81.8422 361.745 81.6724 361.961 81.5527 362.205C81.433 362.449 81.3662 362.715 81.3566 362.987C81.347 363.259 81.3949 363.529 81.4971 363.781C81.7633 364.306 82.1415 364.767 82.6051 365.13C83.0687 365.493 83.6064 365.75 84.1802 365.883C85.5086 366.085 86.8599 366.085 88.1884 365.883C88.3438 366.636 88.4829 367.38 88.6056 368.084C88.6955 368.615 88.7855 369.122 88.8591 369.621H89.8816C89.7835 369.073 89.6771 368.501 89.5544 367.904C89.4072 367.135 89.2272 366.309 89.0391 365.45C89.8042 365.144 90.55 364.791 91.2722 364.394C92.2605 365.243 93.3616 365.951 94.5442 366.497C94.2498 367.217 93.9635 367.912 93.6772 368.566L93.2191 369.605H94.2988L94.5688 368.943C94.8714 368.214 95.1741 367.429 95.4849 366.628C96.7956 366.928 98.1436 367.033 99.485 366.938C100.065 366.844 100.619 366.626 101.107 366.298C101.596 365.971 102.008 365.542 102.315 365.041C102.436 364.797 102.505 364.531 102.516 364.259C102.527 363.987 102.48 363.716 102.379 363.463C102.278 363.211 102.124 362.982 101.929 362.793C101.733 362.604 101.5 362.458 101.244 362.366C99.6895 361.842 97.3254 363.601 96.4584 364.779C96.4093 364.853 95.9348 365.662 95.6404 366.186C95.7631 365.85 95.8858 365.531 96.0085 365.188C96.2539 364.517 96.4829 363.838 96.7283 363.102C96.8346 362.742 96.941 362.382 97.0555 362.022C97.17 361.662 97.2436 361.27 97.3418 360.885C97.5545 360.002 97.7263 359.094 97.8735 358.178C99.0893 358.66 100.372 358.953 101.677 359.045C102.265 359.043 102.845 358.914 103.378 358.665C103.911 358.417 104.383 358.055 104.761 357.605C104.916 357.382 105.023 357.129 105.074 356.862C105.125 356.596 105.12 356.321 105.058 356.057C104.997 355.792 104.88 355.543 104.716 355.327C104.552 355.11 104.345 354.93 104.107 354.799C102.651 354.047 100.017 355.429 99.0105 356.435C98.9451 356.501 98.2825 357.319 97.9308 357.785C98.0207 357.229 98.1107 356.681 98.1762 356.149C98.3807 354.513 98.5361 352.877 98.6915 351.241C98.7406 350.734 98.7978 350.235 98.8469 349.736C99.0596 349.818 101.546 350.742 102.773 350.652C103.361 350.651 103.942 350.521 104.474 350.273C105.007 350.024 105.479 349.662 105.857 349.212C106.014 348.99 106.122 348.738 106.175 348.471C106.227 348.204 106.223 347.93 106.162 347.665C106.101 347.4 105.985 347.151 105.821 346.934C105.657 346.717 105.449 346.538 105.211 346.407C103.755 345.654 101.121 347.036 100.115 348.043C100.033 348.116 99.0841 349.302 98.8551 349.621C98.9778 348.517 99.1005 347.413 99.2723 346.349C99.4925 344.891 99.8067 343.448 100.213 342.03C100.311 342.03 102.904 343.045 104.164 342.955C104.752 342.953 105.332 342.824 105.865 342.575C106.397 342.327 106.869 341.965 107.248 341.515C107.403 341.291 107.51 341.038 107.561 340.77C107.613 340.503 107.607 340.228 107.546 339.963C107.484 339.698 107.367 339.448 107.203 339.231C107.039 339.014 106.831 338.833 106.593 338.701C105.137 337.957 102.503 339.339 101.497 340.337C101.432 340.403 100.679 341.302 100.377 341.744L100.287 341.703C100.736 340.291 101.311 338.922 102.004 337.613C102.381 336.885 102.773 336.206 103.174 335.56C104.346 336.187 105.606 336.631 106.912 336.877C107.497 336.936 108.087 336.869 108.643 336.68C109.199 336.491 109.708 336.184 110.135 335.781C110.315 335.577 110.45 335.337 110.531 335.078C110.611 334.818 110.637 334.545 110.605 334.275C110.574 334.005 110.486 333.744 110.347 333.511C110.208 333.277 110.022 333.075 109.8 332.918C108.434 332.01 105.71 333.098 104.548 334.014L103.91 334.636C103.91 334.57 103.91 334.488 103.91 334.398L104.041 334.194C104.728 333.163 105.415 332.255 106.037 331.462C106.389 331.012 106.724 330.644 107.035 330.251C108.356 330.262 109.672 330.075 110.937 329.695C111.483 329.479 111.976 329.148 112.382 328.724C112.789 328.301 113.099 327.795 113.293 327.241C113.358 326.976 113.367 326.7 113.319 326.432C113.27 326.163 113.165 325.908 113.01 325.683C112.855 325.458 112.655 325.268 112.422 325.127C112.188 324.985 111.928 324.894 111.657 324.861C110.021 324.681 108.098 326.914 107.501 328.247C107.452 328.362 106.855 330.259 106.888 330.259C106.577 330.603 106.25 330.987 105.906 331.405C105.276 332.223 104.565 333.041 103.861 334.079C103.861 332.509 103.567 329.237 101.489 329.04C98.7488 328.779 97.9635 331.912 99.6649 333.613C100.64 334.519 101.934 335.002 103.264 334.955C102.732 335.773 102.209 336.591 101.71 337.499C100.985 338.806 100.378 340.174 99.894 341.589C99.894 341.589 99.894 341.63 99.894 341.646C99.894 341.163 99.894 339.822 99.894 339.724C99.7058 338.268 98.487 335.584 96.8837 335.282C96.615 335.24 96.3405 335.256 96.0781 335.327C95.8157 335.398 95.5712 335.524 95.3606 335.696C95.15 335.868 94.978 336.083 94.8556 336.326C94.7333 336.568 94.6634 336.834 94.6506 337.106C94.6718 337.694 94.822 338.269 95.0906 338.792C95.3592 339.315 95.7396 339.773 96.2048 340.133C97.3324 340.877 98.5686 341.443 99.8694 341.809C99.4156 343.268 99.055 344.755 98.7897 346.259C98.6342 347.135 98.5034 348.018 98.3888 348.91C98.3888 348.493 98.3888 348.092 98.3888 348.092C98.2007 346.636 96.9901 343.953 95.3786 343.65C95.1099 343.608 94.8354 343.624 94.573 343.695C94.3106 343.767 94.0661 343.892 93.8555 344.064C93.6449 344.236 93.4728 344.451 93.3505 344.694C93.2282 344.937 93.1583 345.202 93.1455 345.474C93.1721 346.061 93.3247 346.634 93.5929 347.157C93.8611 347.679 94.2386 348.137 94.6997 348.501C95.7931 349.228 96.9938 349.78 98.258 350.137C98.258 350.48 98.168 350.824 98.1271 351.159C97.9308 352.795 97.7426 354.431 97.5136 356.067C97.4318 356.632 97.3254 357.18 97.2273 357.703C97.2273 357.335 97.2273 357.024 97.2273 356.975C97.0473 355.527 95.8285 352.836 94.217 352.542C93.9485 352.501 93.6745 352.518 93.4126 352.59C93.1507 352.661 92.9068 352.787 92.6965 352.959C92.4862 353.131 92.3141 353.345 92.1914 353.587C92.0687 353.829 91.998 354.095 91.9839 354.366C92.0106 354.952 92.1632 355.526 92.4313 356.048C92.6995 356.571 93.077 357.029 93.5381 357.392C94.6007 358.112 95.7678 358.664 96.9982 359.028C96.8755 359.593 96.761 360.157 96.6138 360.664C96.5156 361.032 96.4338 361.392 96.3111 361.752C96.1884 362.112 96.0821 362.472 95.9676 362.832C95.7222 363.503 95.4686 364.206 95.215 364.861L94.6915 366.178C94.7733 365.621 94.9287 364.542 94.9287 364.419C94.912 363.134 94.5656 361.875 93.9226 360.763C93.9349 360.621 93.9349 360.479 93.9226 360.337C93.8886 360.068 93.7983 359.809 93.6576 359.577C93.5169 359.345 93.3289 359.146 93.1058 358.991C92.8828 358.837 92.6297 358.731 92.3631 358.681C92.0965 358.631 91.8224 358.638 91.5585 358.701C89.9798 359.118 88.9737 361.9 88.9 363.356C88.9 363.446 88.9491 364.378 88.9982 364.992C88.9164 364.648 88.8428 364.313 88.761 363.961C88.5892 363.257 88.4092 362.57 88.2047 361.818C88.0984 361.466 87.9921 361.106 87.8775 360.738C87.763 360.37 87.624 360.002 87.5013 359.634C87.1822 358.775 86.8305 357.924 86.446 357.073C87.7256 356.81 88.9564 356.349 90.0943 355.707C90.5836 355.381 90.9959 354.953 91.3025 354.451C91.6091 353.95 91.8025 353.387 91.8694 352.803C91.8772 352.532 91.8277 352.262 91.7242 352.011C91.6206 351.761 91.4654 351.534 91.2686 351.348C91.0718 351.161 90.8378 351.018 90.5819 350.927C90.326 350.837 90.0539 350.802 89.7835 350.824C88.1475 350.996 86.7405 353.589 86.446 355.02C86.446 355.11 86.3315 356.157 86.2906 356.738C86.0534 356.231 85.8244 355.724 85.579 355.216C84.8509 353.752 84.0657 352.288 83.2967 350.832L82.5933 349.49C82.8141 349.433 85.399 348.836 86.3724 348.092C86.8604 347.763 87.2716 347.332 87.5779 346.83C87.8843 346.327 88.0786 345.764 88.1475 345.18C88.1553 344.908 88.1058 344.639 88.0023 344.388C87.8987 344.137 87.7435 343.911 87.5467 343.724C87.3499 343.537 87.1159 343.394 86.86 343.304C86.6041 343.213 86.332 343.178 86.0616 343.2C84.4256 343.38 83.0186 345.965 82.7241 347.396C82.7241 347.511 82.5687 349.032 82.5524 349.409C82.037 348.419 81.538 347.429 81.08 346.439C80.4473 345.113 79.9008 343.746 79.444 342.349C79.5421 342.349 82.2497 341.711 83.2477 340.942C83.7369 340.617 84.1492 340.188 84.4558 339.686C84.7624 339.185 84.9559 338.622 85.0227 338.038C85.0305 337.766 84.9808 337.495 84.8769 337.243C84.7729 336.992 84.6171 336.765 84.4195 336.577C84.2219 336.389 83.987 336.246 83.7302 336.155C83.4733 336.064 83.2002 336.029 82.9286 336.051C81.2926 336.231 79.8939 338.824 79.5994 340.255C79.5994 340.345 79.4767 341.499 79.4358 342.047H79.3458C78.9416 340.618 78.6678 339.156 78.5278 337.679C78.4378 336.861 78.3969 336.043 78.3724 335.323C79.6953 335.197 80.9916 334.872 82.217 334.357C82.7384 334.087 83.1944 333.706 83.5533 333.242C83.9122 332.777 84.1652 332.239 84.2947 331.666C84.3328 331.397 84.3137 331.123 84.2385 330.862C84.1634 330.601 84.0339 330.358 83.8587 330.151C83.6834 329.943 83.4662 329.774 83.2214 329.656C82.9765 329.538 82.7095 329.474 82.4378 329.466C80.8018 329.466 79.1168 331.879 78.6587 333.27C78.6587 333.343 78.4705 334.145 78.3642 334.726C78.3642 334.382 78.3642 334.022 78.3642 333.695C78.3642 332.46 78.446 331.323 78.5196 330.325C78.5687 329.752 78.626 329.237 78.6832 328.762C79.7913 328.043 80.7841 327.161 81.628 326.145C81.9655 325.663 82.195 325.114 82.3009 324.535C82.4068 323.956 82.3865 323.361 82.2415 322.791C82.1502 322.535 82.0061 322.301 81.8185 322.104C81.6308 321.907 81.4039 321.752 81.1524 321.649C80.9009 321.545 80.6305 321.496 80.3587 321.504C80.0869 321.512 79.8198 321.577 79.5748 321.695C78.1188 322.447 77.7343 325.376 77.9388 326.816C77.9388 326.938 78.5033 328.852 78.5278 328.836C78.4624 329.302 78.3969 329.793 78.3396 330.341C78.2415 331.339 78.1351 332.476 78.1106 333.719C78.1106 333.948 78.1106 334.178 78.1106 334.415C77.4889 333.458 75.5257 330.758 73.3989 331.331C70.8141 331.985 71.4112 334.259 73.4889 334.758Z" fill="#263238"/>
<path d="M62.8712 315.323L62.6831 315.511C62.724 315.453 62.7567 315.388 62.7976 315.323H62.8712Z" fill="#263238"/>
<path d="M199.093 59.395H88.0739C79.0385 59.395 71.7139 66.7196 71.7139 75.755V322.758C71.7139 331.794 79.0385 339.118 88.0739 339.118H199.093C208.128 339.118 215.453 331.794 215.453 322.758V75.755C215.453 66.7196 208.128 59.395 199.093 59.395Z" fill="#1D9FD9" stroke="#263238" stroke-miterlimit="10"/>
<path d="M215.453 85.1538V76.6466C215.454 74.3815 215.009 72.1383 214.143 70.0453C213.276 67.9523 212.007 66.0504 210.405 64.4484C208.804 62.8463 206.903 61.5754 204.81 60.7083C202.717 59.8413 200.475 59.395 198.209 59.395H88.9655C84.3901 59.395 80.0021 61.2126 76.7667 64.4479C73.5314 67.6832 71.7139 72.0712 71.7139 76.6466V85.1538H215.453Z" fill="white" stroke="#263238" stroke-miterlimit="10"/>
<path d="M72.4746 326.93C73.5568 330.459 75.7429 333.548 78.7114 335.742C81.68 337.936 85.2742 339.119 88.9655 339.118H198.209C201.9 339.118 205.494 337.934 208.462 335.74C211.431 333.546 213.617 330.458 214.7 326.93H72.4746Z" fill="white" stroke="#263238" stroke-miterlimit="10"/>
<path d="M198.831 69.2519H185.195V76.7284H198.831V69.2519Z" stroke="#263238" stroke-width="0.821067" stroke-linecap="round" stroke-linejoin="round"/>
<path d="M195.829 69.2519H185.195V76.7284H195.829V69.2519Z" fill="#263238" stroke="#263238" stroke-width="0.725073" stroke-linecap="round" stroke-linejoin="round"/>
<path d="M200.729 71.3459H198.807V74.6425H200.729V71.3459Z" fill="#263238" stroke="#263238" stroke-width="0.725073" stroke-linecap="round" stroke-linejoin="round"/>
<path d="M86.9367 71.575H84.4336V75.8613H86.9367V71.575Z" fill="#263238" stroke="#263238" stroke-width="0.883086" stroke-linecap="round" stroke-linejoin="round"/>
<path d="M90.8634 70.0699H88.3604V75.8613H90.8634V70.0699Z" fill="#263238" stroke="#263238" stroke-width="0.883086" stroke-linecap="round" stroke-linejoin="round"/>
<path d="M94.7897 68.2867H92.2866V75.8531H94.7897V68.2867Z" fill="#263238" stroke="#263238" stroke-width="0.883086" stroke-linecap="round" stroke-linejoin="round"/>
<path d="M201.604 57.0964H83.5913C79.7838 57.0964 76.1323 58.6089 73.4401 61.3011C70.7478 63.9934 69.2354 67.6449 69.2354 71.4523V329.253C69.2354 331.138 69.6067 333.004 70.3283 334.746C71.0498 336.487 72.1074 338.069 73.4406 339.401C74.7738 340.734 76.3564 341.791 78.0981 342.511C79.8398 343.232 81.7064 343.602 83.5913 343.601H201.604C205.409 343.601 209.059 342.089 211.749 339.399C214.44 336.708 215.952 333.058 215.952 329.253V71.4523C215.953 69.5674 215.583 67.7008 214.862 65.9592C214.141 64.2175 213.085 62.6348 211.752 61.3016C210.42 59.9685 208.838 58.9109 207.097 58.1893C205.355 57.4678 203.489 57.0964 201.604 57.0964ZM209.571 322.407C209.571 326.212 208.06 329.861 205.369 332.552C202.678 335.243 199.029 336.754 195.224 336.754H89.9798C86.1746 336.754 82.5252 335.243 79.8345 332.552C77.1437 329.861 75.6321 326.212 75.6321 322.407V78.299C75.631 76.4141 76.0014 74.5475 76.7219 72.8058C77.4425 71.0641 78.4992 69.4815 79.8316 68.1483C81.164 66.8151 82.746 65.7576 84.4873 65.036C86.2286 64.3144 88.095 63.9431 89.9798 63.9431H109.563L110.782 69.6036C111.133 71.2587 112.044 72.7422 113.361 73.8044C114.678 74.8666 116.321 75.4428 118.013 75.436H170.389C172.08 75.4409 173.721 74.8639 175.036 73.8018C176.351 72.7397 177.261 71.2573 177.612 69.6036L178.831 63.9431H195.191C197.079 63.9388 198.949 64.307 200.694 65.0266C202.439 65.7462 204.025 66.8031 205.36 68.1367C206.696 69.4703 207.756 71.0544 208.479 72.7982C209.201 74.5421 209.573 76.4113 209.571 78.299V322.407Z" fill="#263238" stroke="#263238" stroke-width="1.6935" stroke-miterlimit="10"/>
<path d="M187.657 102.405H96.6382C92.8749 102.405 89.8242 105.456 89.8242 109.219V307.184C89.8242 310.947 92.8749 313.997 96.6382 313.997H187.657C191.42 313.997 194.471 310.947 194.471 307.184V109.219C194.471 105.456 191.42 102.405 187.657 102.405Z" fill="white" stroke="#263238" stroke-miterlimit="10"/>
<path d="M128.483 114.864C130.201 114.864 131.084 115.886 131.084 117.686V118.037H129.448V117.571C129.448 116.753 129.129 116.467 128.565 116.467C128 116.467 127.689 116.77 127.689 117.571C127.689 119.878 131.133 120.311 131.133 123.518C131.133 125.309 130.233 126.34 128.508 126.34C126.782 126.34 125.874 125.309 125.874 123.518V122.831H127.51V123.649C127.51 124.467 127.861 124.737 128.426 124.737C128.99 124.737 129.334 124.451 129.334 123.649C129.334 121.342 125.89 120.909 125.89 117.702C125.89 115.886 126.79 114.864 128.483 114.864Z" fill="#263238"/>
<path d="M132.115 114.986H133.874V126.209H132.115V114.986Z" fill="#263238"/>
<path d="M137.8 119.96H140.254V123.518C140.254 125.309 139.354 126.34 137.628 126.34C135.902 126.34 134.994 125.309 134.994 123.518V117.686C134.994 115.886 135.894 114.864 137.628 114.864C139.362 114.864 140.254 115.886 140.254 117.686V118.774H138.618V117.571C138.618 116.753 138.266 116.467 137.71 116.467C137.154 116.467 136.794 116.77 136.794 117.571V123.633C136.794 124.451 137.145 124.72 137.71 124.72C138.274 124.72 138.618 124.434 138.618 123.633V121.563H137.8V119.96Z" fill="#263238"/>
<path d="M142.978 118.086V126.209H141.391V114.986H143.608L145.416 121.71V114.986H146.986V126.209H145.178L142.978 118.086Z" fill="#263238"/>
<path d="M150.741 114.986H152.508V126.209H150.741V114.986Z" fill="#263238"/>
<path d="M155.362 118.086V126.209H153.784V114.986H155.992L157.808 121.71V114.986H159.379V126.209H157.563L155.362 118.086Z" fill="#263238"/>
<path d="M99.0679 157.719V158.537H96.9983V161.547H99.5341V162.365H96.0576V153.98H99.5341V154.798H96.9983V157.686L99.0679 157.719Z" fill="#263238"/>
<path d="M103.526 162.422H102.618L101.211 155.69V162.43H100.393V153.98H101.71L103.101 160.729L104.442 153.98H105.759V162.43H104.859V155.633L103.526 162.422Z" fill="#263238"/>
<path d="M107.673 160.729L107.346 162.43H106.479L108.115 153.98H109.481L111.117 162.43H110.168L109.849 160.729H107.673ZM107.796 159.911H109.677L108.729 155.003L107.796 159.911Z" fill="#263238"/>
<path d="M112.761 153.98V162.43H111.812V153.98H112.761Z" fill="#263238"/>
<path d="M113.702 162.43V153.98H114.642V161.58H117.055V162.398L113.702 162.43Z" fill="#263238"/>
<path d="M120.614 160.729L120.295 162.43H119.428L121.064 153.98H122.43L124.066 162.43H123.125L122.798 160.729H120.614ZM120.737 159.911H122.626L121.669 155.003L120.737 159.911Z" fill="#263238"/>
<path d="M126.741 153.98C128.058 153.98 128.663 154.798 128.663 156.083V160.328C128.663 161.62 128.058 162.414 126.741 162.414H124.761V153.98H126.741ZM126.741 161.58C127.42 161.58 127.747 161.154 127.747 160.377V156.034C127.747 155.256 127.42 154.831 126.733 154.831H125.718V161.58H126.741Z" fill="#263238"/>
<path d="M131.518 153.98C132.835 153.98 133.44 154.798 133.44 156.083V160.328C133.44 161.62 132.835 162.414 131.518 162.414H129.538V153.98H131.518ZM131.518 161.58C132.197 161.58 132.524 161.154 132.524 160.377V156.034C132.524 155.256 132.197 154.831 131.501 154.831H130.487V161.58H131.518Z" fill="#263238"/>
<path d="M136.205 153.98C137.538 153.98 138.095 154.651 138.095 155.911V156.598C138.095 157.53 137.768 158.111 137.039 158.34C137.817 158.569 138.103 159.199 138.103 160.099V161.416C138.072 161.763 138.131 162.113 138.275 162.43H137.318C137.186 162.106 137.133 161.756 137.162 161.408V160.074C137.162 159.126 136.712 158.823 135.927 158.823H135.264V162.43H134.324V153.98H136.205ZM135.968 157.964C136.712 157.964 137.162 157.719 137.162 156.802V155.984C137.162 155.224 136.884 154.823 136.181 154.823H135.264V157.956L135.968 157.964Z" fill="#263238"/>
<path d="M142.086 157.719V158.537H140.025V161.547H142.561V162.365H139.06V153.98H142.544V154.798H140.008V157.686L142.086 157.719Z" fill="#263238"/>
<path d="M147.085 156.009V156.238H146.193V155.96C146.193 155.199 145.898 154.749 145.228 154.749C144.557 154.749 144.262 155.199 144.262 155.944C144.262 157.841 147.101 158.021 147.101 160.402C147.101 161.686 146.479 162.52 145.187 162.52C143.894 162.52 143.289 161.702 143.289 160.402V159.919H144.173V160.451C144.173 161.211 144.492 161.661 145.162 161.661C145.833 161.661 146.152 161.211 146.152 160.451C146.152 158.569 143.33 158.389 143.33 156.009C143.33 154.7 143.935 153.89 145.203 153.89C146.471 153.89 147.085 154.725 147.085 156.009Z" fill="#263238"/>
<path d="M151.575 156.009V156.238H150.684V155.96C150.684 155.199 150.398 154.749 149.719 154.749C149.04 154.749 148.753 155.199 148.753 155.944C148.753 157.841 151.592 158.021 151.592 160.402C151.592 161.686 150.97 162.52 149.678 162.52C148.385 162.52 147.788 161.702 147.788 160.402V159.919H148.663V160.451C148.663 161.211 148.982 161.661 149.653 161.661C150.324 161.661 150.651 161.211 150.651 160.451C150.651 158.569 147.821 158.389 147.821 156.009C147.821 154.7 148.426 153.89 149.694 153.89C150.962 153.89 151.575 154.725 151.575 156.009Z" fill="#263238"/>
<path d="M97.9061 196.238C99.2312 196.238 99.8038 197.056 99.8038 198.3V199.322C99.8482 199.594 99.8284 199.872 99.7461 200.135C99.6637 200.398 99.5211 200.638 99.3296 200.836C99.1381 201.033 98.903 201.184 98.643 201.275C98.3831 201.366 98.1055 201.394 97.8324 201.359H97.0144V204.696H96.0737V196.238H97.9061ZM97.8324 200.516C98.5359 200.516 98.8713 200.189 98.8713 199.379V198.259C98.8713 197.441 98.5932 197.097 97.9061 197.097H96.9981V200.516H97.8324Z" fill="#263238"/>
<path d="M101.333 202.987L101.006 204.696H100.139L101.775 196.238H103.141L104.777 204.696H103.804L103.477 202.987H101.333ZM101.456 202.169H103.338L102.389 197.261L101.456 202.169Z" fill="#263238"/>
<path d="M109.137 198.267V198.496H108.246V198.218C108.246 197.457 107.951 197.007 107.28 197.007C106.61 197.007 106.307 197.457 106.307 198.21C106.307 200.107 109.145 200.287 109.145 202.668C109.145 203.944 108.532 204.778 107.24 204.778C105.947 204.778 105.342 203.96 105.342 202.668V202.185H106.225V202.717C106.225 203.477 106.536 203.919 107.215 203.919C107.894 203.919 108.205 203.477 108.205 202.717C108.205 200.827 105.383 200.647 105.383 198.267C105.383 196.966 105.98 196.156 107.256 196.156C108.532 196.156 109.137 196.983 109.137 198.267Z" fill="#263238"/>
<path d="M113.628 198.267V198.496H112.736V198.218C112.736 197.457 112.442 197.007 111.771 197.007C111.1 197.007 110.798 197.457 110.798 198.21C110.798 200.107 113.636 200.287 113.636 202.668C113.636 203.944 113.023 204.778 111.73 204.778C110.438 204.778 109.833 203.96 109.833 202.668V202.185H110.716V202.717C110.716 203.477 111.035 203.919 111.706 203.919C112.376 203.919 112.696 203.477 112.696 202.717C112.696 200.827 109.873 200.647 109.873 198.267C109.873 196.966 110.479 196.156 111.747 196.156C113.015 196.156 113.628 196.983 113.628 198.267Z" fill="#263238"/>
<path d="M116.704 204.696H115.412L114.258 196.238H115.174L116.164 203.437L117.105 196.246H118.037L118.97 203.453L119.919 196.238H120.737L119.583 204.696H118.34L117.522 198.97L116.704 204.696Z" fill="#263238"/>
<path d="M121.424 198.283C121.424 196.983 122.07 196.156 123.362 196.156C124.655 196.156 125.301 196.974 125.301 198.283V202.651C125.301 203.936 124.663 204.778 123.362 204.778C122.062 204.778 121.424 203.96 121.424 202.651V198.283ZM122.356 202.7C122.356 203.477 122.684 203.919 123.362 203.919C124.041 203.919 124.36 203.477 124.36 202.7V198.234C124.36 197.473 124.05 197.007 123.362 197.007C122.675 197.007 122.356 197.473 122.356 198.234V202.7Z" fill="#263238"/>
<path d="M128.082 196.238C129.408 196.238 129.964 196.917 129.964 198.169V198.856C129.964 199.788 129.637 200.369 128.917 200.598C129.686 200.827 129.98 201.457 129.98 202.365V203.682C129.952 204.028 130.008 204.376 130.144 204.696H129.195C129.056 204.372 129 204.017 129.031 203.666V202.34C129.031 201.383 128.59 201.081 127.804 201.081H127.142V204.696H126.193V196.238H128.082ZM127.837 200.222C128.59 200.222 129.031 199.985 129.031 199.069V198.251C129.031 197.49 128.753 197.089 128.058 197.089H127.142V200.214L127.837 200.222Z" fill="#263238"/>
<path d="M132.933 196.238C134.25 196.238 134.855 197.056 134.855 198.34V202.602C134.855 203.895 134.25 204.696 132.933 204.696H130.954V196.238H132.933ZM132.933 203.837C133.604 203.837 133.931 203.412 133.931 202.643V198.291C133.931 197.514 133.604 197.097 132.917 197.097H131.902V203.837H132.933Z" fill="#263238"/>
<path d="M112.319 237.351C113.644 237.351 114.201 238.022 114.201 239.281V239.968C114.201 240.901 113.873 241.482 113.154 241.711C113.923 241.94 114.217 242.57 114.217 243.47V244.787C114.188 245.136 114.245 245.486 114.381 245.809H113.432C113.294 245.484 113.238 245.13 113.268 244.778V243.453C113.268 242.496 112.826 242.193 112.041 242.193H111.379V245.809H110.43V237.351H112.319ZM112.066 241.31C112.818 241.31 113.26 241.073 113.26 240.148V239.33C113.26 238.57 112.982 238.177 112.287 238.177H111.37V241.31H112.066Z" fill="#263238"/>
<path d="M118.201 241.097V241.915H116.156V244.926H118.692V245.784H115.215V237.351H118.692V238.169H116.156V241.056L118.201 241.097Z" fill="#263238"/>
<path d="M122.651 245.793H121.751L120.344 239.061V245.809H119.526V237.351H120.843L122.233 244.099L123.575 237.351H124.892V245.809H123.992V239.003L122.651 245.793Z" fill="#263238"/>
<path d="M128.859 241.097V241.915H126.79V244.926H129.334V245.784H125.849V237.351H129.334V238.169H126.79V241.056L128.859 241.097Z" fill="#263238"/>
<path d="M133.334 245.793H132.426L131.027 239.061V245.809H130.209V237.351H131.526L132.917 244.099L134.258 237.351H135.575V245.809H134.683V239.003L133.334 245.793Z" fill="#263238"/>
<path d="M138.406 237.351C139.723 237.351 140.246 237.973 140.246 239.224V239.617C140.246 240.517 139.993 241.073 139.256 241.302C140.074 241.531 140.393 242.177 140.393 243.11V243.821C140.432 244.087 140.408 244.358 140.325 244.613C140.242 244.868 140.101 245.101 139.914 245.293C139.727 245.485 139.498 245.631 139.245 245.721C138.991 245.81 138.721 245.841 138.455 245.809H136.516V237.351H138.406ZM138.177 240.934C138.929 240.934 139.314 240.697 139.314 239.813V239.314C139.314 238.57 139.06 238.21 138.389 238.21H137.424V240.934H138.177ZM138.455 244.95C139.15 244.95 139.461 244.582 139.461 243.797V243.052C139.461 242.112 139.085 241.793 138.275 241.793H137.457V244.95H138.455Z" fill="#263238"/>
<path d="M144.254 241.097V241.915H142.184V244.926H144.728V245.784H141.244V237.351H144.728V238.169H142.184V241.056L144.254 241.097Z" fill="#263238"/>
<path d="M147.477 237.351C148.802 237.351 149.359 238.022 149.359 239.281V239.968C149.359 240.901 149.031 241.482 148.312 241.711C149.081 241.94 149.375 242.57 149.375 243.47V244.787C149.345 245.136 149.404 245.488 149.547 245.809H148.59C148.459 245.482 148.406 245.129 148.434 244.778V243.453C148.434 242.496 147.984 242.193 147.199 242.193H146.537V245.809H145.604V237.351H147.477ZM147.24 241.31C147.993 241.31 148.442 241.073 148.442 240.148V239.33C148.442 238.57 148.164 238.177 147.461 238.177H146.545V241.31H147.24Z" fill="#263238"/>
<path d="M153.465 245.793H152.557L151.158 239.061V245.809H150.34V237.351H151.657L153.047 244.099L154.381 237.351H155.698V245.809H154.806V239.003L153.465 245.793Z" fill="#263238"/>
<path d="M159.673 241.097V241.915H157.604V244.926H160.14V245.784H156.663V237.351H160.14V238.169H157.604V241.056L159.673 241.097Z" fill="#263238"/>
<path d="M184.851 266.267H101.751C100.246 266.267 99.0269 267.487 99.0269 268.991V281.94C99.0269 283.444 100.246 284.664 101.751 284.664H184.851C186.356 284.664 187.575 283.444 187.575 281.94V268.991C187.575 267.487 186.356 266.267 184.851 266.267Z" fill="#263238" stroke="#263238" stroke-miterlimit="10"/>
<path d="M131.677 268.221C130.127 268.221 129.389 269.21 129.389 270.804C129.389 273.712 132.843 273.934 132.843 276.236C132.843 277.166 132.459 277.712 131.633 277.712C130.806 277.712 130.422 277.166 130.422 276.236V275.587H129.345V276.177C129.345 277.742 130.083 278.76 131.662 278.76C133.241 278.76 133.994 277.742 133.994 276.177C133.994 273.269 130.525 273.048 130.525 270.73C130.525 269.815 130.88 269.269 131.706 269.269C132.533 269.269 132.887 269.815 132.887 270.745V271.085H133.979V270.804C133.979 269.24 133.241 268.221 131.677 268.221ZM136.091 268.324H134.955V276.162C134.955 277.727 135.678 278.775 137.257 278.775C138.852 278.775 139.575 277.727 139.575 276.162V268.324H138.497V276.221C138.497 277.151 138.128 277.712 137.302 277.712C136.46 277.712 136.091 277.151 136.091 276.221V268.324ZM140.707 268.324V278.657H143.084C144.693 278.657 145.446 277.786 145.446 276.236V275.365C145.446 274.229 145.062 273.432 144.058 273.151C144.958 272.871 145.268 272.192 145.268 271.099V270.612C145.268 269.092 144.634 268.324 143.025 268.324H140.707ZM141.859 272.708V269.372H142.995C143.822 269.372 144.132 269.815 144.132 270.73V271.336C144.132 272.413 143.659 272.708 142.744 272.708H141.859ZM141.859 277.609V273.756H142.862C143.851 273.756 144.309 274.14 144.309 275.292V276.207C144.309 277.166 143.925 277.609 143.084 277.609H141.859ZM134.954 285.347V293.657H136.046V283.324H134.437L132.799 291.576L131.101 283.324H129.492V293.657H130.496V285.42L132.208 293.642H133.315L134.954 285.347ZM137.233 283.324V293.657H138.385V283.324H137.233ZM142.196 293.657V284.372H144.1V283.324H139.155V284.372H141.059V293.657H142.196Z" fill="white"/>
<path d="M186.995 166.798H96.1475V180.598H186.995V166.798Z" fill="white" stroke="#263238" stroke-miterlimit="10"/>
<path d="M186.995 209.637H96.1475V223.437H186.995V209.637Z" fill="white" stroke="#263238" stroke-miterlimit="10"/>
<path d="M105.35 236.95H97.3008V244.999H105.35V236.95Z" fill="white" stroke="#263238" stroke-miterlimit="10"/>
<path d="M272.557 350.039C268.786 350.605 264.946 350.541 261.195 349.85C254.749 348.713 247.936 343.225 247.936 343.225L242.447 343.601V319.748C242.447 319.748 251.944 318.038 254.946 318.202C257.948 318.366 272.557 332.787 272.557 332.787V350.039Z" fill="white" stroke="#263238" stroke-miterlimit="10"/>
<path d="M247.821 352.566H230.251L227.298 317.728H250.774L247.821 352.566Z" fill="#1D9FD9" stroke="#263238" stroke-miterlimit="10"/>
<path d="M250.243 311.871H228.377V313.793H250.243V311.871Z" fill="white" stroke="#263238" stroke-miterlimit="10"/>
<path d="M251.535 313.433H226.537V320.247H251.535V313.433Z" fill="white" stroke="#263238" stroke-miterlimit="10"/>
<path d="M262.325 344.55C253.621 343.601 252.672 334.137 252.672 334.137C252.672 334.137 246.046 338.685 243.2 338.685C240.353 338.685 239.601 336.599 239.036 335.143C238.472 333.687 251.723 325.049 251.723 325.049C251.723 325.049 254.177 322.595 256.271 322.595C258.365 322.595 267.249 334.709 268.959 336.795" fill="white"/>
<path d="M262.325 344.55C253.621 343.601 252.672 334.137 252.672 334.137C252.672 334.137 246.046 338.685 243.2 338.685C240.353 338.685 239.601 336.599 239.036 335.143C238.472 333.687 251.723 325.049 251.723 325.049C251.723 325.049 254.177 322.595 256.271 322.595C258.365 322.595 267.249 334.709 268.959 336.795" stroke="#263238" stroke-miterlimit="10"/>
<path d="M372.084 369.744L371.397 291.92L367.928 312.051L369.294 369.744H372.084Z" fill="#263238" stroke="#263238" stroke-miterlimit="10"/>
<path d="M366.603 369.736L367.053 327.413C367.053 327.413 373.663 313.932 374.17 307.617C374.677 301.302 378.211 285.899 374.93 278.832C371.65 271.764 374.53 247.829 374.53 247.829L371.462 236.917C369.442 231.617 350.006 219.249 342.685 216.721C335.439 214.384 327.781 213.609 320.214 214.447C313.67 215.208 310.112 218.995 309.351 220.255C308.591 221.514 304.558 233.637 299.756 240.206C294.955 246.774 290.922 251.568 287.388 256.615C283.854 261.662 281.58 272.018 279.306 278.079C277.032 284.14 273.245 311.151 271.478 325.523C269.924 338.202 270.914 363.797 271.175 369.695L366.603 369.736Z" fill="#808080" stroke="#263238" stroke-miterlimit="10"/>
<path d="M297.294 261.695C299.838 259.068 302.702 256.77 305.817 254.856C313.646 250.308 319.2 246.267 319.2 246.267L317.687 237.433L325.769 241.22C325.769 241.22 327.535 235.666 332.582 226.071C337.629 216.476 337.883 214.455 337.883 214.455" stroke="#263238" stroke-miterlimit="10"/>
<path d="M290.733 269.179C292.354 267.058 294.088 265.027 295.928 263.093" stroke="#263238" stroke-miterlimit="10"/>
<path d="M325.932 258.611L314.137 369.654H318.3L328.713 262.079L325.932 258.611Z" fill="#263238" stroke="#263238" stroke-miterlimit="10"/>
<path d="M279.502 369.736C279.273 359.429 278.545 316.73 282.087 300.803C286.128 282.619 289.662 262.169 295.715 253.588C301.768 245.007 314.153 234.144 320.713 227.829C324.888 223.618 328.219 218.648 330.529 213.187L321.474 188.704C321.474 188.704 313.392 202.34 310.84 203.347C310.84 203.347 313.367 214.709 311.6 221.277C309.834 227.846 298.218 246.521 294.684 251.069C291.15 255.617 280.32 280.574 278.046 297.269C276.042 311.993 275.805 358.881 275.78 369.744L279.502 369.736Z" fill="white" stroke="#263238" stroke-miterlimit="10"/>
<path d="M311.617 207.477L324.37 207.208L320.026 197.711L311.617 207.477Z" fill="#263238" stroke="#263238" stroke-miterlimit="10"/>
<path d="M279.502 369.736C279.273 359.429 278.545 316.73 282.087 300.803C286.128 282.619 289.662 262.169 295.715 253.588C301.768 245.007 314.153 234.144 320.713 227.829C322.826 225.769 324.707 223.484 326.324 221.015C319.118 225.923 313.392 226.087 309.964 225.449C306.169 233.678 297.621 247.273 294.676 251.061C291.142 255.609 280.287 280.598 278.013 297.261C276.009 311.985 275.772 358.873 275.748 369.736H279.502Z" fill="#1D9FD9" stroke="#263238" stroke-miterlimit="10"/>
<path d="M311.028 205.662C311.028 205.662 313.482 215.044 313.236 219.175C312.991 223.306 309.376 235.175 304.958 241.523C300.541 247.87 293.375 257.523 287.584 260.009C281.793 262.496 279.584 262.463 279.584 262.463C283.169 260.714 286.273 258.116 288.627 254.896C290.982 251.677 292.516 247.931 293.097 243.985C295.306 230.185 288.132 196.811 287.854 194.602C287.576 192.394 311.028 205.662 311.028 205.662Z" fill="#263238" stroke="#263238" stroke-miterlimit="10"/>
<path d="M279.298 167.453C279.298 167.453 278.75 178.373 279.846 180.279C280.942 182.185 283.936 183.551 283.936 186.823C283.936 190.095 281.204 196.107 282.57 198.013C283.936 199.919 288.844 199.927 288.844 199.927C288.844 199.927 296.206 208.386 298.128 210.3C300.051 212.214 302.767 215.208 304.133 214.668C305.499 214.128 315.871 203.478 318.325 199.379C320.779 195.281 322.145 180.819 321.057 174.545C319.969 168.271 304.697 157.89 296.214 157.367C290.794 157.093 285.363 157.645 280.108 159.003L279.298 167.453Z" fill="white" stroke="#263238" stroke-miterlimit="10"/>
<path d="M288.852 179.739L290.586 184.32L296.967 180.377" stroke="#263238" stroke-miterlimit="10"/>
<path d="M285.768 177.939C285.768 177.939 284.034 171.445 293.572 173.179" stroke="#263238" stroke-miterlimit="10"/>
<path d="M292.402 201.032C292.402 201.032 297.04 199.666 300.582 193.931" stroke="#263238" stroke-miterlimit="10"/>
<path d="M293.711 183.232C293.973 183.731 293.605 184.443 292.893 184.868C292.181 185.293 291.372 185.162 291.11 184.672C290.848 184.181 291.216 183.461 291.928 183.036C292.639 182.61 293.441 182.766 293.711 183.232Z" fill="#263238"/>
<path d="M285.302 142.61C285.302 142.61 267.56 154.062 268.942 157.899C270.324 161.735 279.314 167.453 279.314 167.453L280.132 161.449C280.132 161.449 289.417 166.087 298.128 169.367L306.865 172.639C308.157 174.071 309.522 175.436 310.955 176.729C312.051 177.547 315.862 177.547 315.862 177.547C315.862 177.547 317.229 206.749 322.406 213.58C327.584 220.41 342.603 226.668 352.672 231.044C362.742 235.42 367.217 235.756 369.949 239.576C372.681 243.396 373.826 255.551 373.826 255.551C373.826 255.551 390.333 238.504 366.955 198.021C349.998 168.655 351.944 165.301 346.21 155.445C340.476 145.588 326.578 131.15 312.91 130.087C299.241 129.023 285.302 142.61 285.302 142.61Z" fill="#263238" stroke="#263238" stroke-miterlimit="10"/>
<path d="M350.447 211.993C352.333 213.005 354.278 213.904 356.271 214.684" stroke="#787878" stroke-miterlimit="10"/>
<path d="M307.838 140.876C316.437 148.143 322.026 158.347 323.519 169.506C325.343 184.091 331.486 198.676 344.46 208.246" stroke="#787878" stroke-miterlimit="10"/>
<path d="M300.132 155.215C303.59 156.264 306.942 157.633 310.145 159.305" stroke="#787878" stroke-miterlimit="10"/>
<path d="M276.009 158.864C276.009 158.864 271.396 157.023 276.476 153.334C279.478 151.142 287.51 151.878 295.478 153.89" stroke="#787878" stroke-miterlimit="10"/>
<path d="M315.879 175.093C315.879 175.093 313.695 156.811 308.517 149.735" stroke="#787878" stroke-miterlimit="10"/>
<path d="M221.997 296.77L202.439 281.817C202.281 281.698 202.163 281.534 202.099 281.347C202.035 281.16 202.028 280.958 202.079 280.767C202.13 280.576 202.236 280.404 202.385 280.274C202.533 280.143 202.717 280.06 202.913 280.034L213.187 278.644C213.896 278.546 214.617 278.592 215.307 278.781C215.998 278.969 216.643 279.295 217.203 279.74L237.146 295.503L221.997 296.77Z" fill="#263238" stroke="#263238" stroke-miterlimit="10"/>
<path d="M261.637 297.752C261.637 297.752 257.089 293.711 255.576 291.445C254.713 290.293 253.55 289.401 252.214 288.865C250.878 288.33 249.421 288.173 248.001 288.41C245.22 288.918 238.913 287.404 237.899 288.664C236.885 289.924 236.893 293.212 236.893 293.212C236.893 293.212 221.236 294.218 219.977 293.965C218.717 293.711 217.703 295.732 218.709 297.498C219.715 299.265 227.052 301.228 227.052 301.228C227.048 302.646 227.37 304.045 227.993 305.318C229.073 307.511 230.864 310.914 232.345 312.386C234.619 314.66 239.412 315.658 244.468 316.68C249.523 317.703 257.597 316.427 257.597 316.427L261.637 297.752Z" fill="white" stroke="#263238" stroke-miterlimit="10"/>
<path d="M236.893 293.237L248.754 292.476" stroke="#263238" stroke-miterlimit="10"/>
<path d="M227.052 301.253C229.828 301.101 232.612 301.194 235.371 301.531C238.701 302.079 241.474 302.635 243.412 302.079" stroke="#263238" stroke-miterlimit="10"/>
<path d="M227.993 305.351C230.393 305.778 232.764 306.354 235.093 307.077C237.31 307.895 240.917 310.12 244.516 309.016" stroke="#263238" stroke-miterlimit="10"/>
<path d="M231.494 310.955C231.494 310.955 237.596 313.728 242.308 313.449" stroke="#263238" stroke-miterlimit="10"/>
<path d="M368.689 248.288C368.689 248.288 369.736 260.124 369.736 268.746C369.736 277.367 368.73 294.75 362.922 306.611C357.114 318.472 358.627 326.816 352.819 338.685C347.012 350.554 343.003 350.799 326.308 349.319C309.613 347.838 290.709 341.49 289.703 341.49C288.696 341.49 273.752 338.652 266.668 335.143C261.858 332.669 257.213 329.887 252.762 326.816C252.984 324.735 253.494 322.695 254.275 320.754C255.543 317.728 259.584 295.756 259.584 295.756C264.232 298.499 269.136 300.783 274.226 302.578C278.69 303.984 283.246 305.078 287.862 305.85C287.862 305.85 292.656 302.824 294.169 302.316C295.682 301.809 298.717 305.343 303.011 306.357C306.942 307.263 310.921 307.94 314.93 308.386C315.944 308.386 326.259 307.159 325.564 307.372C324.639 307.65 323.78 305.736 324.05 304.1C324.896 301.476 325.992 298.939 327.322 296.525C328.075 295.511 328.075 291.723 328.075 289.204C328.075 286.684 324.541 260.165 326.308 252.844C328.075 245.523 338.652 230.365 338.652 230.365C338.652 230.365 339.118 228.083 344.713 228.091C350.308 228.099 359.355 234.152 363.143 237.433" fill="#808080"/>
<path d="M368.689 248.288C368.689 248.288 369.736 260.124 369.736 268.746C369.736 277.367 368.73 294.75 362.922 306.611C357.114 318.472 358.627 326.816 352.819 338.685C347.012 350.554 343.003 350.799 326.308 349.319C309.613 347.838 290.709 341.49 289.703 341.49C288.696 341.49 273.752 338.652 266.668 335.143C261.858 332.669 257.213 329.887 252.762 326.816C252.984 324.735 253.494 322.695 254.275 320.754C255.543 317.728 259.584 295.756 259.584 295.756C264.232 298.499 269.136 300.783 274.226 302.578C278.69 303.984 283.246 305.078 287.862 305.85C287.862 305.85 292.656 302.824 294.169 302.316C295.682 301.809 298.717 305.343 303.011 306.357C306.942 307.263 310.921 307.94 314.93 308.386C315.944 308.386 326.259 307.159 325.564 307.372C324.639 307.65 323.78 305.736 324.05 304.1C324.896 301.476 325.992 298.939 327.322 296.525C328.075 295.511 328.075 291.723 328.075 289.204C328.075 286.684 324.541 260.165 326.308 252.844C328.075 245.523 338.652 230.365 338.652 230.365C338.652 230.365 339.118 228.083 344.713 228.091C350.308 228.099 359.355 234.152 363.143 237.433" stroke="#263238" stroke-miterlimit="10"/>
<path d="M362.562 262.635C360.571 260.554 358.203 258.869 355.585 257.67C352.487 256.366 349.032 256.175 345.81 257.13" stroke="#263238" stroke-miterlimit="10"/>
<path d="M365.891 266.374C365.891 266.374 365.139 265.367 363.896 264.018" stroke="#263238" stroke-miterlimit="10"/>
<path d="M259.216 324.059C259.216 324.35 259.129 324.635 258.968 324.877C258.806 325.119 258.576 325.308 258.307 325.419C258.038 325.531 257.742 325.56 257.456 325.503C257.171 325.446 256.908 325.306 256.702 325.1C256.496 324.894 256.356 324.632 256.299 324.346C256.242 324.06 256.272 323.764 256.383 323.495C256.495 323.226 256.683 322.996 256.925 322.835C257.168 322.673 257.452 322.586 257.743 322.586C258.133 322.589 258.506 322.744 258.782 323.02C259.058 323.296 259.214 323.669 259.216 324.059V324.059Z" stroke="#263238" stroke-miterlimit="10"/>
<path d="M336.026 317.188C336.972 318.222 338.015 319.162 339.143 319.993" stroke="#263238" stroke-miterlimit="10"/>
<path d="M326.014 306.112C326.014 306.112 330.505 311.347 334.341 315.421" stroke="#263238" stroke-miterlimit="10"/>
<path d="M309.204 320.026C310.019 321.244 310.901 322.416 311.846 323.535" stroke="#263238" stroke-miterlimit="10"/>
<path d="M301.277 306.865C301.277 306.865 304.508 312.738 307.756 317.793" stroke="#263238" stroke-miterlimit="10"/>
<path d="M267.96 321.523C266.922 326.431 265.76 330.799 264.688 332.623" stroke="#263238" stroke-miterlimit="10"/>
<path d="M271.224 302.832C271.224 302.832 270.21 309.965 268.77 317.359" stroke="#263238" stroke-miterlimit="10"/>
<path d="M75.2561 369.744H17.9961" stroke="#263238" stroke-miterlimit="10"/>
<path d="M386.415 369.744H83.436" stroke="#263238" stroke-miterlimit="10"/>
</svg>
