<svg width="449" height="449" viewBox="0 0 449 449" fill="none" xmlns="http://www.w3.org/2000/svg">
<path d="M359.828 387.568C382.018 367.614 398.505 340.36 410.952 313.932C429.441 274.671 439.284 225.685 413.475 187.511C398.586 165.492 375.328 151.591 349.51 146.356C324.672 141.327 300.516 142.414 279.152 126.672C257.546 110.732 238.742 90.8507 219.399 72.3429C169.668 24.7489 79.3112 38.3985 37.3477 102.48C-4.61584 166.561 6.8157 249.806 47.2257 288.42C83.5139 323.109 134.143 329.889 174.212 357.009C194.067 370.479 207.95 390.298 228.99 402.124C253.46 415.873 283.463 421.512 311.031 414.49C329.799 409.704 345.927 400.068 359.828 387.568Z" fill="#1D9FD9"/>
<path opacity="0.7" d="M359.828 387.568C382.018 367.614 398.505 340.36 410.952 313.932C429.441 274.671 439.284 225.685 413.475 187.511C398.586 165.492 375.328 151.591 349.51 146.356C324.672 141.327 300.516 142.414 279.152 126.672C257.546 110.732 238.742 90.8507 219.399 72.3429C169.668 24.7489 79.3112 38.3985 37.3477 102.48C-4.61584 166.561 6.8157 249.806 47.2257 288.42C83.5139 323.109 134.143 329.889 174.212 357.009C194.067 370.479 207.95 390.298 228.99 402.124C253.46 415.873 283.463 421.512 311.031 414.49C329.799 409.704 345.927 400.068 359.828 387.568Z" fill="white"/>
<path d="M401.191 398.577L397.715 365.953" stroke="#263238" stroke-width="0.985332" stroke-linecap="round" stroke-linejoin="round"/>
<path d="M397.697 366.869C397.697 366.869 391.456 362.011 391.456 350.903C391.456 339.794 399.78 330.778 399.78 330.778C399.78 330.778 408.805 341.887 406.722 352.986C404.639 364.085 397.697 366.869 397.697 366.869Z" fill="#1D9FD9" stroke="#263238" stroke-width="0.985332" stroke-linecap="round" stroke-linejoin="round"/>
<path d="M397.715 365.953L399.305 341.438" stroke="#263238" stroke-width="0.985332" stroke-linecap="round" stroke-linejoin="round"/>
<path d="M404.396 396.171C407.426 388.362 411.125 380.83 415.451 373.658" stroke="#263238" stroke-width="0.985332" stroke-linecap="round" stroke-linejoin="round"/>
<path d="M412.182 379.558C412.182 379.558 408.716 372.437 413.619 362.496C418.522 352.555 429.98 348.128 429.98 348.128C429.98 348.128 433.168 362.074 426.388 371.116C419.608 380.159 412.182 379.558 412.182 379.558Z" fill="#1D9FD9" stroke="#263238" stroke-width="0.985332" stroke-linecap="round" stroke-linejoin="round"/>
<path d="M412.182 379.558L424.817 358.787" stroke="#263238" stroke-width="0.985332" stroke-linecap="round" stroke-linejoin="round"/>
<path d="M395.56 399.08C393.677 392.808 391.118 386.759 387.927 381.039L383.069 372.67" stroke="#263238" stroke-width="0.985332" stroke-linecap="round" stroke-linejoin="round"/>
<path d="M386.975 379.145C383.142 380.322 379.072 380.51 375.147 379.69C371.221 378.87 367.567 377.07 364.525 374.457C353.749 365.405 354.351 346.933 354.351 346.933C354.351 346.933 375.238 343.952 383.67 355.788C386.115 359.102 387.697 362.971 388.274 367.049C388.851 371.126 388.404 375.283 386.975 379.145Z" fill="#1D9FD9" stroke="#263238" stroke-width="0.985332" stroke-linecap="round" stroke-linejoin="round"/>
<path d="M386.975 379.145L362.217 353.345" stroke="#263238" stroke-width="0.985332" stroke-linecap="round" stroke-linejoin="round"/>
<path d="M412.613 391.591H386.185V417.507H412.613V391.591Z" fill="#263238" stroke="#263238" stroke-width="0.985332" stroke-linecap="round" stroke-linejoin="round"/>
<path d="M368.459 26.042H191.678V174.975H368.459V26.042Z" fill="white" stroke="#263238" stroke-width="0.985332" stroke-linecap="round" stroke-linejoin="round"/>
<path d="M228.37 109.771H226.934L226.691 108.137H224.949L224.698 109.771H223.396L224.841 100.729H226.925L228.37 109.771ZM225.129 106.907H226.494L225.811 102.327L225.129 106.907Z" fill="#263238"/>
<path d="M230.382 100.729V107.706C230.382 108.353 230.67 108.604 231.119 108.604C231.568 108.604 231.864 108.371 231.864 107.706V100.729H233.202V107.616C233.202 109.062 232.484 109.888 231.083 109.888C229.682 109.888 228.963 109.062 228.963 107.616V100.729H230.382Z" fill="#263238"/>
<path d="M233.759 100.729H238.15V102.022H236.668V109.771H235.276V102.022H233.795L233.759 100.729Z" fill="#263238"/>
<path d="M240.197 109.771H238.77V100.729H240.197V104.608H241.805V100.729H243.26V109.771H241.805V105.901H240.197V109.771Z" fill="#263238"/>
<path d="M245.711 104.536H247.66V105.829H245.711V108.523H248.163V109.816H244.256V100.729H248.127V102.022H245.675L245.711 104.536Z" fill="#263238"/>
<path d="M250.309 103.27V109.816H249.034V100.729H250.83L252.293 106.117V100.729H253.56V109.772H252.096L250.309 103.27Z" fill="#263238"/>
<path d="M254.134 100.729H258.534V102.022H257.044V109.771H255.625V102.022H254.134V100.729Z" fill="#263238"/>
<path d="M259.163 100.729H260.582V109.771H259.163V100.729Z" fill="#263238"/>
<path d="M265.737 106.404V107.607C265.737 109.053 265.018 109.879 263.617 109.879C262.216 109.879 261.498 109.053 261.498 107.607V102.902C261.498 101.447 262.225 100.621 263.617 100.621C265.009 100.621 265.737 101.447 265.737 102.902V103.8H264.399V102.83C264.399 102.183 264.111 101.932 263.662 101.932C263.213 101.932 262.926 102.183 262.926 102.83V107.715C262.926 108.362 263.204 108.613 263.662 108.613C264.12 108.613 264.399 108.389 264.399 107.715V106.422L265.737 106.404Z" fill="#263238"/>
<path d="M271.196 109.771H269.76L269.517 108.137H267.784L267.533 109.771H266.23L267.676 100.729H269.76L271.196 109.771ZM267.955 106.907H269.32L268.637 102.327L267.955 106.907Z" fill="#263238"/>
<path d="M270.954 100.729H275.354V102.022H273.89V109.771H272.471V102.022H270.981L270.954 100.729Z" fill="#263238"/>
<path d="M277.392 104.536H279.341V105.829H277.392V108.523H279.853V109.816H275.974V100.729H279.853V102.022H277.392V104.536Z" fill="#263238"/>
<path d="M284.065 106.772L282.269 100.729H283.768L284.855 104.85L285.941 100.729H287.297L285.501 106.772V109.771H284.083L284.065 106.772Z" fill="#263238"/>
<path d="M287.54 102.902C287.54 102.33 287.767 101.782 288.171 101.378C288.575 100.974 289.124 100.747 289.695 100.747C290.267 100.747 290.815 100.974 291.219 101.378C291.623 101.782 291.85 102.33 291.85 102.902V107.607C291.85 108.179 291.623 108.727 291.219 109.131C290.815 109.535 290.267 109.763 289.695 109.763C289.124 109.763 288.575 109.535 288.171 109.131C287.767 108.727 287.54 108.179 287.54 107.607V102.902ZM288.959 107.697C288.959 108.344 289.246 108.595 289.695 108.595C290.144 108.595 290.432 108.353 290.432 107.697V102.812C290.432 102.165 290.144 101.914 289.695 101.914C289.246 101.914 288.959 102.165 288.959 102.812V107.697Z" fill="#263238"/>
<path d="M294.122 100.729V107.706C294.122 108.353 294.409 108.604 294.858 108.604C295.307 108.604 295.595 108.371 295.595 107.706V100.729H296.942V107.616C296.942 109.062 296.223 109.888 294.822 109.888C293.422 109.888 292.703 109.062 292.703 107.616V100.729H294.122Z" fill="#263238"/>
<path d="M300.884 109.771C300.765 109.413 300.722 109.034 300.759 108.658V107.239C300.759 106.404 300.471 106.09 299.861 106.09H299.367V109.771H297.948V100.729H300.094C301.567 100.729 302.195 101.411 302.195 102.812V103.521C302.242 103.876 302.181 104.237 302.021 104.557C301.861 104.877 301.609 105.142 301.297 105.317C302.007 105.614 302.24 106.296 302.24 107.239V108.658C302.212 109.03 302.264 109.403 302.393 109.754L300.884 109.771ZM299.331 102.022V104.797H299.932C300.462 104.797 300.785 104.563 300.785 103.845V102.947C300.785 102.3 300.57 102.049 300.067 102.049L299.331 102.022Z" fill="#263238"/>
<path d="M309.711 109.771H308.274L308.032 108.137H306.281L306.038 109.771H304.736L306.218 100.729H308.301L309.711 109.771ZM306.469 106.907H307.834L307.116 102.372L306.469 106.907Z" fill="#263238"/>
<path d="M314.48 106.404V107.607C314.48 109.053 313.752 109.879 312.36 109.879C310.969 109.879 310.241 109.053 310.241 107.607V102.902C310.241 101.447 310.96 100.621 312.36 100.621C313.761 100.621 314.48 101.447 314.48 102.902V103.8H313.133V102.83C313.133 102.183 312.845 101.932 312.396 101.932C311.947 101.932 311.66 102.183 311.66 102.83V107.715C311.66 108.362 311.947 108.613 312.396 108.613C312.845 108.613 313.133 108.389 313.133 107.715V106.422L314.48 106.404Z" fill="#263238"/>
<path d="M319.464 106.404V107.607C319.464 109.053 318.745 109.879 317.344 109.879C315.944 109.879 315.225 109.053 315.225 107.607V102.902C315.225 101.447 315.952 100.621 317.344 100.621C318.736 100.621 319.464 101.447 319.464 102.902V103.8H318.117V102.83C318.117 102.183 317.838 101.932 317.38 101.932C316.922 101.932 316.644 102.183 316.644 102.83V107.715C316.644 108.362 316.931 108.613 317.38 108.613C317.829 108.613 318.117 108.389 318.117 107.715V106.422L319.464 106.404Z" fill="#263238"/>
<path d="M320.209 102.902C320.19 102.606 320.232 102.31 320.332 102.032C320.432 101.753 320.588 101.498 320.79 101.282C320.992 101.066 321.237 100.894 321.508 100.777C321.78 100.659 322.073 100.598 322.369 100.598C322.665 100.598 322.958 100.659 323.229 100.777C323.501 100.894 323.745 101.066 323.948 101.282C324.15 101.498 324.306 101.753 324.406 102.032C324.506 102.31 324.548 102.606 324.529 102.902V107.607C324.548 107.903 324.506 108.199 324.406 108.477C324.306 108.756 324.15 109.011 323.948 109.227C323.745 109.443 323.501 109.615 323.229 109.733C322.958 109.85 322.665 109.911 322.369 109.911C322.073 109.911 321.78 109.85 321.508 109.733C321.237 109.615 320.992 109.443 320.79 109.227C320.588 109.011 320.432 108.756 320.332 108.477C320.232 108.199 320.19 107.903 320.209 107.607V102.902ZM321.637 107.697C321.637 108.344 321.915 108.595 322.373 108.595C322.831 108.595 323.11 108.353 323.11 107.697V102.812C323.11 102.165 322.822 101.914 322.373 101.914C321.924 101.914 321.637 102.165 321.637 102.812V107.697Z" fill="#263238"/>
<path d="M326.8 100.729V107.706C326.8 108.353 327.088 108.604 327.537 108.604C327.986 108.604 328.273 108.371 328.273 107.706V100.729H329.62V107.616C329.62 109.062 328.902 109.888 327.501 109.888C326.1 109.888 325.381 109.062 325.381 107.616V100.729H326.8Z" fill="#263238"/>
<path d="M331.856 103.27V109.816H330.581V100.729H332.377L333.841 106.117V100.729H335.107V109.772H333.643L331.856 103.27Z" fill="#263238"/>
<path d="M335.69 100.729H340.091V102.022H338.6V109.771H337.181V102.022H335.69V100.729Z" fill="#263238"/>
<path d="M300.916 72.9955C302.697 61.9394 295.178 51.5331 284.121 49.7523C273.065 47.9715 262.659 55.4906 260.878 66.5467C259.097 77.6028 266.617 88.0091 277.673 89.7899C288.729 91.5707 299.135 84.0516 300.916 72.9955Z" fill="#1D9FD9"/>
<path d="M289.74 65.096C289.74 66.8454 289.221 68.5556 288.249 70.0102C287.277 71.4648 285.896 72.5985 284.28 73.268C282.663 73.9375 280.885 74.1126 279.169 73.7713C277.453 73.43 275.877 72.5876 274.64 71.3506C273.403 70.1135 272.561 68.5375 272.219 66.8216C271.878 65.1058 272.053 63.3273 272.723 61.7111C273.392 60.0948 274.526 58.7133 275.98 57.7414C277.435 56.7695 279.145 56.2507 280.895 56.2507C283.241 56.2507 285.49 57.1826 287.149 58.8414C288.808 60.5002 289.74 62.7501 289.74 65.096Z" fill="#263238"/>
<path d="M266.338 83.8732C268.227 85.8247 270.489 87.3765 272.99 88.4362C275.49 89.496 278.178 90.0421 280.894 90.0421C283.61 90.0421 286.299 89.496 288.799 88.4362C291.3 87.3765 293.562 85.8247 295.451 83.8732V83.2895C295.452 82.2651 295.251 81.2506 294.86 80.3039C294.469 79.3571 293.895 78.4968 293.171 77.772C292.447 77.0473 291.588 76.4723 290.641 76.0801C289.695 75.6878 288.681 75.4859 287.656 75.4859H274.142C272.072 75.4859 270.087 76.308 268.624 77.7715C267.16 79.235 266.338 81.2198 266.338 83.2895V83.8732Z" fill="#263238"/>
<path d="M341.662 126.07H219.337V140.941H341.662V126.07Z" stroke="#263238" stroke-width="0.985332" stroke-miterlimit="10"/>
<path d="M341.662 148.368H219.337V163.238H341.662V148.368Z" fill="#1D9FD9" stroke="#263238" stroke-width="0.985332" stroke-miterlimit="10"/>
<path d="M260.366 133.928V134.826H258.157V138.041H260.851V138.939H257.133V129.923H260.851V130.821H258.157V133.91L260.366 133.928Z" fill="#BDBDBD"/>
<path d="M262.692 138.974H261.794V129.923H263.114L265.206 136.46V129.923H266.104V138.974H265.054L262.737 131.656L262.692 138.974Z" fill="#BDBDBD"/>
<path d="M268.403 138.974V130.839H266.706V129.941H271.052V130.839H269.4V138.974H268.403Z" fill="#BDBDBD"/>
<path d="M274.995 133.928V134.826H272.785V138.041H275.479V138.939H271.762V129.923H275.479V130.821H272.785V133.91L274.995 133.928Z" fill="#BDBDBD"/>
<path d="M278.443 129.923C279.871 129.923 280.464 130.65 280.464 131.988V132.724C280.526 133.118 280.447 133.521 280.242 133.862C280.037 134.204 279.718 134.462 279.341 134.592C280.167 134.835 280.473 135.49 280.473 136.478V137.888C280.446 138.259 280.508 138.631 280.652 138.974H279.637C279.494 138.625 279.435 138.246 279.467 137.87V136.496C279.467 135.472 278.991 135.149 278.147 135.149H277.482V139.019H276.477V129.923H278.443ZM278.192 134.188C278.991 134.188 279.467 133.928 279.467 132.949V132.051C279.467 131.243 279.171 130.812 278.416 130.812H277.482V134.161L278.192 134.188Z" fill="#BDBDBD"/>
<path d="M287.522 132.105V132.904H286.561V132.006C286.561 131.189 286.238 130.695 285.501 130.695C284.765 130.695 284.442 131.189 284.442 132.006V136.783C284.442 137.601 284.774 138.094 285.501 138.094C286.229 138.094 286.561 137.601 286.561 136.783V135.607H287.522V136.729C287.522 138.103 286.866 139.01 285.474 139.01C284.082 139.01 283.445 138.112 283.445 136.729V132.051C283.445 130.686 284.091 129.779 285.474 129.779C286.857 129.779 287.522 130.74 287.522 132.105Z" fill="#BDBDBD"/>
<path d="M288.357 132.105C288.357 130.722 289.039 129.833 290.422 129.833C291.805 129.833 292.506 130.731 292.506 132.105V136.783C292.506 138.157 291.823 139.064 290.422 139.064C289.021 139.064 288.357 138.166 288.357 136.783V132.105ZM289.354 136.837C289.354 137.663 289.704 138.148 290.422 138.148C291.141 138.148 291.5 137.663 291.5 136.837V132.06C291.5 131.243 291.159 130.749 290.422 130.749C289.686 130.749 289.354 131.243 289.354 132.06V136.837Z" fill="#BDBDBD"/>
<path d="M295.577 129.923C296.987 129.923 297.633 130.776 297.633 132.177V136.738C297.633 138.121 296.987 138.974 295.577 138.974H293.458V129.923H295.577ZM295.577 138.005C296.295 138.005 296.645 137.556 296.645 136.729V132.078C296.645 131.252 296.295 130.794 295.559 130.794H294.472V137.978L295.577 138.005Z" fill="#BDBDBD"/>
<path d="M301.791 133.928V134.826H299.582V138.041H302.276V138.939H298.549V129.923H302.276V130.821H299.582V133.91L301.791 133.928Z" fill="#BDBDBD"/>
<path d="M272.274 152.301C273.675 152.301 274.321 153.199 274.321 154.555V159.117C274.321 160.5 273.675 161.353 272.274 161.353H270.146V152.301H272.274ZM272.274 160.437C273.001 160.437 273.351 159.979 273.351 159.153V154.501C273.351 153.675 273.001 153.226 272.265 153.226H271.196V160.41L272.274 160.437Z" fill="#263238"/>
<path d="M275.192 154.456C275.192 153.073 275.875 152.175 277.258 152.175C278.641 152.175 279.341 153.073 279.341 154.456V159.135C279.383 159.426 279.359 159.724 279.272 160.006C279.185 160.287 279.036 160.546 278.837 160.763C278.638 160.981 278.393 161.151 278.12 161.262C277.846 161.374 277.552 161.423 277.258 161.407C275.875 161.407 275.192 160.509 275.192 159.135V154.456ZM276.18 159.188C276.18 160.015 276.53 160.491 277.258 160.491C277.985 160.491 278.326 160.015 278.326 159.188V154.456C278.326 153.639 277.994 153.145 277.258 153.145C276.521 153.145 276.18 153.639 276.18 154.456V159.188Z" fill="#263238"/>
<path d="M281.182 161.353H280.284V152.301H281.559L283.652 158.847V152.301H284.55V161.353H283.499L281.182 154.034V161.353Z" fill="#263238"/>
<path d="M288.797 156.315V157.213H286.588V160.437H289.282V161.335H285.564V152.301H289.291V153.199H286.597V156.288L288.797 156.315Z" fill="#263238"/>
<path d="M368.459 26.042H191.678V33.244H368.459V26.042Z" fill="#1D9FD9" stroke="#263238" stroke-width="0.985332" stroke-linecap="round" stroke-linejoin="round"/>
<path d="M73.3848 256.172V254.843" stroke="#263238" stroke-width="0.985332" stroke-linecap="round" stroke-linejoin="round"/>
<path d="M73.3848 252.212V138.355C73.3848 136.055 73.838 133.777 74.7186 131.652C75.5991 129.527 76.8898 127.596 78.5168 125.97C80.1438 124.343 82.0752 123.054 84.2008 122.174C86.3264 121.295 88.6044 120.843 90.9047 120.844H174.212" stroke="#263238" stroke-width="0.985332" stroke-linecap="round" stroke-linejoin="round" stroke-dasharray="2.93 2.93"/>
<path d="M175.568 120.844H176.888" stroke="#263238" stroke-width="0.985332" stroke-linecap="round" stroke-linejoin="round"/>
<path d="M185.644 121.571L171.33 113.301V129.833L185.644 121.571Z" fill="#263238"/>
<path d="M322.292 367.067H323.622" stroke="#263238" stroke-width="0.985332" stroke-linecap="round" stroke-linejoin="round"/>
<path d="M326.252 367.067H331.164C335.825 367.067 340.295 365.215 343.591 361.919C346.887 358.623 348.738 354.154 348.738 349.493V183.363" stroke="#263238" stroke-width="0.985332" stroke-linecap="round" stroke-linejoin="round" stroke-dasharray="2.93 2.93"/>
<path d="M348.738 182.052V180.731" stroke="#263238" stroke-width="0.985332" stroke-linecap="round" stroke-linejoin="round"/>
<path d="M317.282 366.294L331.596 374.556V358.024L317.282 366.294Z" fill="#263238"/>
<path d="M242.271 258.498C243.035 257.045 244.181 255.829 245.587 254.982C246.993 254.135 248.604 253.69 250.246 253.694H327.069C327.069 253.694 332.619 253.694 330.958 264.246C329.297 274.797 306.523 339.22 300.965 358.652C295.406 378.085 294.301 419.186 294.301 419.186H202.113C202.113 419.186 209.503 321.062 242.271 258.498Z" fill="white" stroke="#263238" stroke-width="0.985332" stroke-linecap="round" stroke-linejoin="round"/>
<path d="M313.743 272.022C305.975 290.144 289.497 361.822 286.875 419.186H294.301C294.301 419.186 295.442 378.058 300.965 358.652C306.487 339.246 329.288 274.797 330.958 264.245C332.628 253.694 327.07 253.694 327.07 253.694C327.07 253.694 319.966 257.493 313.743 272.022Z" fill="#263238" stroke="#263238" stroke-width="0.985332" stroke-linecap="round" stroke-linejoin="round"/>
<path d="M167.657 255.149C167.657 255.149 153.558 253.434 144.246 243.645C134.934 233.857 164.487 198.952 180.265 190.726C196.043 182.501 202.544 184.755 219.462 197.228C236.381 209.701 252.895 229.717 252.688 243.142C252.482 256.568 245.172 262.988 255.382 269.607C265.593 276.225 294.49 295.02 298.711 307.933C302.931 320.846 295.613 336.912 278.667 345.649C261.722 354.387 233.92 353.983 207.142 345.326C180.363 336.669 174.535 309.28 177.984 298.136C181.432 286.992 190.556 279.332 187.808 270.855C185.06 262.378 167.657 255.149 167.657 255.149Z" fill="#263238" stroke="#263238" stroke-width="0.985332" stroke-linecap="round" stroke-linejoin="round"/>
<path d="M179.744 293.646C179.744 293.646 165.16 291.616 158.425 295.972C151.69 300.327 118.41 357.206 118.41 357.206L100.028 332.467L84.0889 339.624C84.0889 339.624 91.5602 368.539 100.253 382.925C108.946 397.311 113.902 398.766 116.884 398.29C125.756 396.88 151.457 367.147 151.457 367.147L160.796 398.218L154.456 420.803H272.543L258.22 396.916C258.22 396.916 276.907 310.708 272.148 301.575C267.389 292.443 239.658 293.646 230.939 293.646H205.974C202.191 294.396 198.346 294.793 194.489 294.831C189.557 294.688 184.635 294.292 179.744 293.646Z" fill="#1D9FD9"/>
<path d="M258.624 296.555L258.866 296.654L256.603 302.419L256.352 302.321L258.624 296.555ZM258.004 302.967L258.247 303.066L260.519 297.301L260.267 297.202L258.004 302.967ZM268.304 321.313L268.044 321.241L267.047 324.789H267.326L268.304 321.313ZM270.011 321.798L269.75 321.726L268.852 324.789H269.122L270.011 321.798ZM259.235 321.996L260.079 324.789H260.357L259.459 321.915L259.235 321.996ZM261.192 321.412L260.932 321.484L261.929 324.789H262.207L261.192 321.412ZM268.421 308.22L271.501 302.832L271.277 302.698L268.197 308.086L268.421 308.22ZM269.966 309.118L272.848 304.081C272.848 303.928 272.848 303.793 272.794 303.65L269.732 308.993L269.966 309.118ZM271.986 316.778L272.498 316.105L272.552 315.611L271.771 316.617L271.986 316.778ZM264.362 311.31L268.655 315.8L268.843 315.62L264.551 311.13L264.362 311.31ZM263.006 312.504L267.29 316.994L267.487 316.814L263.195 312.324L263.006 312.504ZM258.274 312.504L258.346 312.243L255.032 311.426V311.696L258.274 312.504ZM254.987 309.81L258.714 310.753L258.777 310.492L255.032 309.594L254.987 309.81ZM259.145 317.829L259.064 317.578L255.032 318.979V319.257L259.145 317.829ZM258.507 315.889L254.987 317.057V317.335L258.579 316.141L258.507 315.889ZM256.559 366.061L258.821 360.296L258.579 360.197L256.307 365.962L256.559 366.061ZM260.222 360.843L257.959 366.608L258.202 366.707L260.474 360.942L260.222 360.843ZM260.106 387.873L259.414 385.565L259.154 385.637L259.998 388.421L260.106 387.873ZM264.596 349.097L264.344 349.187L266.445 355.015H266.499L266.58 354.611L264.596 349.097ZM266.005 348.586L267.11 351.63C267.11 351.459 267.173 351.289 267.2 351.109L266.257 348.496L266.005 348.586ZM269.939 333.409L270.082 333.885L270.163 333.347L269.939 333.409ZM264.03 333.059L263.671 339.237H263.931L264.29 333.05L264.03 333.059ZM265.44 339.345H265.7L266.059 333.158H265.799L265.44 339.345ZM257.888 332.79L258.013 332.556L254.96 330.913V331.218L257.888 332.79ZM254.96 329.198L258.723 331.218L258.848 330.985L255.032 328.964L254.96 329.198ZM257.313 338.546L257.142 338.348L255.032 340.342V340.692L257.313 338.546ZM256.154 337.208L255.984 337.001L254.96 337.899V338.25L256.154 337.208ZM255.032 347.831V348.11L260.617 345.927L260.519 345.685L255.032 347.831ZM255.032 345.927V346.215L259.971 344.284L259.872 344.033L255.032 345.927ZM258.328 357.17L258.39 356.91L255.032 356.156V356.425L258.328 357.17ZM258.714 355.446L258.777 355.186L255.032 354.342V354.611L258.714 355.446ZM258.274 376.262L258.346 376.011L254.987 375.157V375.436L258.274 376.262ZM255.032 373.568L258.759 374.52L258.821 374.259L255.032 373.308V373.568ZM259.19 381.587L259.109 381.336L255.032 382.683V382.97L259.19 381.587ZM258.633 379.908L258.552 379.656L255.032 380.824V381.102L258.633 379.908ZM266.616 327.267L267.326 324.78H267.047L266.365 327.195L266.616 327.267ZM269.157 324.78H268.888L268.071 327.671L268.322 327.752L269.157 324.78ZM260.986 327.914L261.246 327.842L260.348 324.78H260.07L260.986 327.914ZM262.934 327.33L262.171 324.78H261.893L262.683 327.411L262.934 327.33ZM264.416 412.954L266.517 418.773L266.769 418.683L264.667 412.864L264.416 412.954ZM268.43 418.082L266.329 412.263L266.077 412.353L268.188 418.172L268.43 418.082ZM271.402 419.519L271.142 419.447L270.765 420.794H271.043L271.402 419.519ZM255.032 394.985L257.959 396.557L258.085 396.323L255.032 394.68V394.985ZM255.032 392.974L258.624 394.94L258.678 394.671L255.032 392.677V392.974ZM257.34 402.304L257.169 402.097L255.032 404.01V404.351L257.34 402.304ZM256.181 400.957L256.011 400.759L254.987 401.657V402.008L256.181 400.957ZM260.474 409.362L255.032 411.535V411.823L260.617 409.632L260.474 409.362ZM254.987 409.892L259.926 407.961L259.827 407.719L254.987 409.605V409.892ZM254.987 419.833V420.111L257.959 420.776H258.301L258.346 420.596L254.987 419.833ZM258.669 419.123L258.732 418.863L254.987 418.019V418.297L258.669 419.123ZM192.603 302.294L192.845 302.392L195.117 296.627L194.866 296.528L192.603 302.294ZM194.246 302.94L194.498 303.039L196.761 297.274L196.518 297.175L194.246 302.94ZM252.275 310.977L254.969 311.669V311.399L252.32 310.726L252.275 310.977ZM252.778 309.011L252.706 309.262L254.987 309.846V309.567L252.778 309.011ZM255.032 319.257V318.979L253.236 319.58L253.317 319.832L255.032 319.257ZM252.625 317.892L252.706 318.143L254.987 317.389V317.111L252.625 317.892ZM247.848 324.789H248.153L249.321 322.759L249.096 322.624L247.848 324.789ZM249.895 324.789H250.201L250.856 323.639L250.632 323.504L249.895 324.789ZM236.542 322.31L236.336 322.481L238.23 324.789H238.572L236.542 322.31ZM237.709 321.358L240.52 324.789H240.861L237.916 321.197L237.709 321.358ZM231.01 324.384L230.768 324.474L230.876 324.789H231.163L231.01 324.384ZM232.429 323.873L232.762 324.771H233.04L232.681 323.765L232.429 323.873ZM222.713 324.771L223.476 321.762L223.216 321.699L222.435 324.771H222.713ZM224.931 322.13L224.257 324.771H224.5L225.155 322.202L224.931 322.13ZM204.573 321.295L204.313 321.224L203.307 324.771H203.586L204.573 321.295ZM206.271 321.78L206.019 321.708L205.121 324.771H205.399L206.271 321.78ZM195.495 321.978L196.339 324.771H196.617L195.719 321.897L195.495 321.978ZM197.443 321.394L197.192 321.466L198.189 324.771H198.458L197.443 321.394ZM204.681 308.203L207.761 302.814L207.528 302.68L204.448 308.068L204.681 308.203ZM205.992 308.957L206.217 309.083L209.297 303.695L209.063 303.56L205.992 308.957ZM241.131 312.908L246.833 315.324L246.932 315.081L241.23 312.666L241.131 312.908ZM240.439 314.533L246.142 316.949L246.24 316.707L240.493 314.3L240.439 314.533ZM245.244 305.23L245.495 305.302L247.183 299.348L246.923 299.267L245.244 305.23ZM246.941 305.715L247.201 305.787L248.881 299.824L248.629 299.752L246.941 305.715ZM237.674 294.634L239.47 300.561L239.721 300.489L237.97 294.544L237.674 294.634ZM239.362 294.122L241.158 300.049L241.409 299.977L239.613 294.05L239.362 294.122ZM219.794 319.508L217.998 313.582L217.747 313.653L219.543 319.589L219.794 319.508ZM221.492 318.996L219.696 313.07L219.435 313.142L221.231 319.077L221.492 318.996ZM228.496 315.566L234.629 314.668V314.408L228.496 315.306V315.566ZM228.747 317.317L234.881 316.419V316.159L228.747 317.057V317.317ZM233.237 309.765L233.498 309.828L234.881 303.793L234.62 303.73L233.237 309.765ZM236.345 304.126L234.962 310.16L235.222 310.223L236.605 304.188L236.345 304.126ZM214.622 306.326L214.846 306.469L218.16 301.234L217.936 301.099L214.622 306.326ZM219.66 302.186L219.435 302.042L216.122 307.278L216.346 307.421L219.66 302.186ZM213.904 296.16L219.579 293.682V293.619H219.094L213.823 295.918L213.904 296.16ZM214.505 297.534L214.613 297.777L220.288 295.307L220.181 295.065L214.505 297.534ZM209.117 293.619H208.839L207.438 298.486L207.698 298.558L209.117 293.619ZM206.019 298.109L207.276 293.619H206.998L205.759 298.001L206.019 298.109ZM230.319 295.523L229.708 293.646H229.43L230.014 295.586L230.319 295.523ZM228.37 296.106L228.631 296.035L227.912 293.655H227.634L228.37 296.106ZM208.04 316.635L208.246 316.796L212.018 311.884L211.802 311.723L208.04 316.635ZM209.44 317.712L209.656 317.874L213.419 312.953L213.212 312.791L209.44 317.712ZM200.622 311.328L204.915 315.818L205.112 315.638L200.82 311.148L200.622 311.328ZM199.293 312.504L203.586 316.994L203.774 316.814L199.491 312.324L199.293 312.504ZM222.803 304.566L222.695 304.808L228.397 307.233L228.505 306.981L222.803 304.566ZM223.386 303.183L229.089 305.598L229.196 305.356L223.494 302.94L223.386 303.183ZM194.57 312.504L194.632 312.243L191.274 311.426V311.696L194.57 312.504ZM191.283 309.81L195.001 310.753L195.072 310.492L191.274 309.594L191.283 309.81ZM195.441 317.829L195.351 317.578L191.274 318.979V319.257L195.441 317.829ZM194.794 315.889L191.283 317.057V317.335L194.875 316.141L194.794 315.889ZM194.866 360.197L192.603 365.962L192.845 366.061L195.117 360.296L194.866 360.197ZM196.518 360.843L194.246 366.608L194.498 366.707L196.761 360.942L196.518 360.843ZM252.464 329.853L254.987 331.218V330.913L252.589 329.62L252.464 329.853ZM253.424 328.057L253.299 328.282L254.987 329.18V328.874L253.424 328.057ZM255.032 340.342L252.526 342.515L252.697 342.713L255.032 340.692V340.342ZM251.539 341.375L255.032 338.357V338.007L251.368 341.168L251.539 341.375ZM254.754 347.984L254.843 348.235L255.032 348.155V347.876L254.754 347.984ZM254.107 346.341L254.197 346.583L255.032 346.26V345.972L254.107 346.341ZM255.005 356.219L252.311 355.608L252.248 355.868L254.996 356.488L255.005 356.219ZM255.005 354.423L252.706 353.902L252.652 354.162L255.005 354.692V354.423ZM255.005 375.211L252.338 374.466L252.275 374.726L254.969 375.418L255.005 375.211ZM252.796 372.823L252.724 373.083L255.032 373.568V373.299L252.796 372.823ZM255.032 382.97V382.683L253.236 383.284L253.317 383.536L255.032 382.97ZM255.032 381.102V380.824L252.67 381.605L252.751 381.856L255.032 381.102ZM218.573 327.932L212.871 325.507L212.772 325.749L218.474 328.174L218.573 327.932ZM212.081 327.384L217.783 329.799L217.882 329.557L212.179 327.141L212.081 327.384ZM249.303 386.463L249.078 386.338L247.848 388.502H248.153L249.303 386.463ZM250.838 387.361L250.614 387.227L249.877 388.52H250.183L250.838 387.361ZM236.318 386.203L238.212 388.52H238.554L236.524 386.032L236.318 386.203ZM237.692 385.08L240.502 388.52H240.844L237.898 384.928L237.692 385.08ZM230.992 388.116L230.75 388.205L230.858 388.52H231.145L230.992 388.116ZM232.411 387.604L232.744 388.502H233.022L232.663 387.496L232.411 387.604ZM223.431 385.511L223.171 385.44L222.39 388.52H222.704L223.431 385.511ZM224.886 385.88L224.213 388.52H224.5L225.155 385.942L224.886 385.88ZM204.528 385.035L204.268 384.964L203.262 388.556H203.541L204.528 385.035ZM206.226 385.52L205.974 385.448L205.076 388.52H205.355L206.226 385.52ZM195.45 385.718L196.294 388.52H196.572L195.674 385.646L195.45 385.718ZM197.147 385.215L198.144 388.52H198.413L197.398 385.134L197.147 385.215ZM207.483 366.447L204.403 371.835L204.636 371.969L207.716 366.581L207.483 366.447ZM209.279 367.453L209.045 367.318L205.974 372.706L206.199 372.841L209.279 367.453ZM234.324 337.944L230.373 333.158L230.175 333.329L234.091 338.124L234.324 337.944ZM232.959 339.067L228.99 334.253L228.783 334.424L232.708 339.219L232.959 339.067ZM223.252 336.445L225.353 342.264L225.604 342.174L223.503 336.355L223.252 336.445ZM224.922 335.843L227.023 341.662L227.266 341.572L225.164 335.753L224.922 335.843ZM246.914 378.821L241.212 376.406L241.113 376.648L246.815 379.064L246.914 378.821ZM246.223 380.456L240.52 378.031L240.421 378.282L246.124 380.698L246.223 380.456ZM246.905 363.016L245.226 368.979L245.477 369.051L247.165 363.088L246.905 363.016ZM248.863 363.573L248.611 363.501L246.923 369.455L247.183 369.527L248.863 363.573ZM239.73 364.211L237.934 358.284L237.683 358.356L239.479 364.292L239.73 364.211ZM241.427 363.699L239.631 357.772L239.371 357.844L241.167 363.78L241.427 363.699ZM223.467 348.19L220.387 353.578L220.612 353.704L223.692 348.316L223.467 348.19ZM222.156 347.445L221.923 347.31L218.852 352.698L219.076 352.824L222.156 347.445ZM211.694 352.339L207.77 347.526L207.564 347.697L211.488 352.492L211.694 352.339ZM213.059 351.217L209.144 346.421L208.938 346.592L212.853 351.387L213.059 351.217ZM200.667 349.268L202.768 355.096L203.02 355.006L200.909 349.178L200.667 349.268ZM202.328 348.666L204.43 354.494L204.681 354.405L202.58 348.577L202.328 348.666ZM245.154 353.381L245.414 353.444L246.941 347.445L246.681 347.373L245.154 353.381ZM248.656 347.876L248.396 347.813L246.869 353.812L247.13 353.875L248.656 347.876ZM238.527 352.914L232.824 350.498L232.726 350.741L238.428 353.165L238.527 352.914ZM239.218 351.289L233.48 348.873L233.381 349.115L239.083 351.531L239.218 351.289ZM219.794 383.221L217.998 377.286L217.747 377.366L219.543 383.293L219.794 383.221ZM221.492 382.71L219.696 376.774L219.435 376.855L221.231 382.781L221.492 382.71ZM234.629 378.408V378.148L228.496 379.046V379.306L234.629 378.408ZM234.881 380.159V379.899L228.747 380.797V381.057L234.881 380.159ZM233.48 373.568L234.863 367.533L234.602 367.471L233.219 373.514L233.48 373.568ZM235.204 373.963L236.587 367.928L236.327 367.866L234.944 373.909L235.204 373.963ZM218.142 364.983L217.918 364.839L214.622 370.039L214.846 370.182L218.142 364.983ZM219.642 365.926L219.417 365.782L216.104 371.018L216.328 371.161L219.642 365.926ZM219.561 357.422L219.462 357.179L213.778 359.658L213.886 359.9L219.561 357.422ZM220.27 359.047L220.163 358.805L214.487 361.283L214.595 361.526L220.27 359.047ZM209.36 356.353L209.108 356.272L207.438 362.19L207.698 362.262L209.36 356.353ZM205.974 361.831L207.653 355.868L207.402 355.797L205.714 361.759L205.974 361.831ZM230.265 359.2L228.469 353.273L228.209 353.345L230.005 359.281L230.265 359.2ZM226.538 353.812L228.334 359.739L228.595 359.667L226.799 353.74L226.538 353.812ZM217.927 338.546L212.979 342.282L213.14 342.488L218.088 338.761L217.927 338.546ZM214.209 343.934L219.148 340.198L218.995 339.992L214.047 343.718L214.209 343.934ZM209.934 338.806L208.219 332.853L207.959 332.933L209.683 338.878L209.934 338.806ZM206.262 333.418L207.977 339.444L208.237 339.372L206.54 333.4L206.262 333.418ZM200.353 333.068L199.993 339.246H200.254L200.613 333.059L200.353 333.068ZM201.754 339.354H202.023L202.382 333.167H202.113L201.754 339.354ZM211.928 375.553L211.712 375.391L207.95 380.312L208.156 380.474L211.928 375.553ZM213.329 376.63L213.122 376.468L209.351 381.39L209.566 381.551L213.329 376.63ZM200.532 374.996L204.825 379.486L205.022 379.297L200.73 374.807L200.532 374.996ZM199.293 376.262L203.586 380.752L203.774 380.572L199.491 376.082L199.293 376.262ZM244.391 341.77L244.184 341.608L240.287 346.421L240.493 346.592L244.391 341.77ZM242.81 340.495L238.913 345.308L239.119 345.478L243.008 340.656L242.81 340.495ZM243.897 331.362H243.636L242.936 337.513H243.205L243.897 331.362ZM241.876 331.128L241.185 337.289H241.445L242.137 331.137L241.876 331.128ZM228.505 370.73L222.803 368.315L222.695 368.557L228.397 370.973L228.505 370.73ZM223.386 366.923L229.089 369.338L229.196 369.096L223.494 366.68L223.386 366.923ZM194.21 332.88L194.336 332.646L191.283 331.003V331.308L194.21 332.88ZM191.283 329.288L195.046 331.308L195.171 331.075L191.274 328.964L191.283 329.288ZM193.636 338.636L193.456 338.438L191.274 340.342V340.692L193.636 338.636ZM192.477 337.298L192.298 337.091L191.283 337.989V338.339L192.477 337.298ZM196.761 345.703L191.283 347.849V348.128L196.859 345.945L196.761 345.703ZM196.213 344.302L196.123 344.051L191.274 345.927V346.215L196.213 344.302ZM194.579 357.188L194.632 356.928L191.283 356.174V356.443L194.579 357.188ZM191.274 354.611L194.956 355.446L195.019 355.186L191.274 354.342V354.611ZM194.57 376.262L194.632 376.011L191.283 375.157V375.436L194.57 376.262ZM191.274 373.568L194.992 374.52L195.063 374.259L191.274 373.308V373.568ZM195.432 381.587L195.342 381.336L191.274 382.683V382.97L195.432 381.587ZM194.875 379.908L194.785 379.656L191.274 380.824V381.102L194.875 379.908ZM245.989 327.994L246.214 328.12L248.126 324.78H247.848L245.989 327.994ZM247.525 328.892L247.749 329.018L250.174 324.798H249.868L247.525 328.892ZM240.439 327.096L238.545 324.78H238.203L240.233 327.258L240.439 327.096ZM241.607 326.145L241.813 325.974L240.835 324.78H240.493L241.607 326.145ZM233.094 330.204L231.136 324.816H230.849L232.842 330.329L233.094 330.204ZM234.504 329.692L234.755 329.602L233.013 324.78H232.735L234.504 329.692ZM221.662 327.707L221.923 327.77L222.686 324.78H222.408L221.662 327.707ZM223.377 328.147L223.638 328.21L224.536 324.78H224.257L223.377 328.147ZM202.858 327.249L203.559 324.762H203.28L202.598 327.177L202.858 327.249ZM205.399 324.762H205.121L204.304 327.653L204.564 327.734L205.399 324.762ZM197.228 327.896L197.479 327.824L196.581 324.762H196.303L197.228 327.896ZM199.176 327.312L198.404 324.762H198.135L198.916 327.393L199.176 327.312ZM252.58 393.36L252.455 393.593L254.978 394.958V394.653L252.58 393.36ZM253.416 391.806L253.29 392.04L254.978 392.938V392.641L253.416 391.806ZM255.032 404.351V404.01L252.526 406.174L252.697 406.372L255.032 404.351ZM255.032 402.017V401.666L251.368 404.836L251.539 405.034L255.032 402.017ZM254.754 411.643L254.843 411.895L255.032 411.823V411.535L254.754 411.643ZM254.107 410L254.197 410.251L255.032 409.919V409.632L254.107 410ZM252.311 419.258L252.248 419.519L254.996 420.138V419.86L252.311 419.258ZM255.005 418.046L252.706 417.525L252.652 417.785L255.005 418.324V418.046ZM218.573 391.636L212.871 389.22L212.772 389.463L218.474 391.878L218.573 391.636ZM212.081 391.088L217.783 393.513L217.882 393.261L212.179 390.845L212.081 391.088ZM230.175 397.006L234.091 401.801L234.297 401.63L230.373 396.844L230.175 397.006ZM232.932 402.753L228.99 397.967L228.783 398.128L232.708 402.924L232.932 402.753ZM225.578 405.896L223.476 400.068L223.225 400.158L225.326 405.986L225.578 405.896ZM227.239 405.294L225.138 399.466L224.895 399.556L226.996 405.384L227.239 405.294ZM223.647 412.038L223.422 411.904L220.342 417.292L220.567 417.426L223.647 412.038ZM222.111 411.14L221.878 411.015L218.807 416.403L219.031 416.537L222.111 411.14ZM211.65 416.034L207.77 411.284L207.564 411.446L211.488 416.241L211.65 416.034ZM213.015 414.912L209.099 410.126L208.893 410.287L212.808 415.082L213.015 414.912ZM202.975 418.701L200.865 412.882L200.622 412.972L202.723 418.791L202.975 418.701ZM204.636 418.1L202.535 412.281L202.283 412.371L204.385 418.19L204.636 418.1ZM246.842 411.158L246.582 411.095L245.055 417.094L245.316 417.157L246.842 411.158ZM248.557 411.589L248.297 411.526L246.77 417.534L247.031 417.597L248.557 411.589ZM238.527 416.672L232.824 414.256L232.726 414.499L238.428 416.914L238.527 416.672ZM239.218 415.038L233.48 412.577L233.381 412.82L239.083 415.244L239.218 415.038ZM209.099 419.986L208.848 420.884H209.126L209.351 420.093L209.099 419.986ZM207.644 419.573L207.393 419.501L207.007 420.848H207.285L207.644 419.573ZM228.227 417.094L229.358 420.848H229.636L228.487 417.013L228.227 417.094ZM226.79 417.525L226.538 417.597L227.508 420.848H227.787L226.79 417.525ZM218.088 402.591L217.927 402.385L212.979 406.111L213.14 406.327L218.088 402.591ZM219.148 404.01L218.995 403.795L214.047 407.521L214.209 407.737L219.148 404.01ZM209.683 402.69L209.934 402.609L208.219 396.665L207.959 396.736L209.683 402.69ZM208.237 403.103L206.54 397.114L206.288 397.185L208.004 403.13L208.237 403.103ZM200.254 403.103L200.613 396.925H200.353L199.993 403.112L200.254 403.103ZM202.05 403.211L202.409 397.024H202.14L201.781 403.202L202.05 403.211ZM244.418 405.528L244.211 405.357L240.314 410.17L240.52 410.341L244.418 405.528ZM242.837 404.244L238.94 409.057L239.146 409.228L243.035 404.414L242.837 404.244ZM243.924 395.12H243.663L242.963 401.271H243.232L243.924 395.12ZM241.903 394.895L241.212 401.047H241.472L242.164 394.886L241.903 394.895ZM194.237 396.638L194.363 396.404L191.31 394.761V395.066L194.237 396.638ZM195.198 394.842L191.274 392.677V392.974L195.037 395.003L195.198 394.842ZM193.636 402.304L193.456 402.097L191.274 404.001V404.351L193.636 402.304ZM192.477 400.957L192.298 400.759L191.283 401.657V402.008L192.477 400.957ZM196.761 409.362L191.283 411.508V411.796L196.859 409.605L196.761 409.362ZM191.283 409.892L196.213 407.961L196.123 407.719L191.283 409.605V409.892ZM191.283 419.833V420.111L194.255 420.776H194.588L194.632 420.596L191.283 419.833ZM194.965 419.123L195.028 418.863L191.283 418.019V418.297L194.965 419.123ZM246.223 391.815L248.135 388.475H247.848L246.052 391.681L246.223 391.815ZM249.877 388.475L247.534 392.561L247.758 392.695L250.183 388.475H249.877ZM240.242 390.953L240.448 390.783L238.554 388.475H238.212L240.242 390.953ZM241.616 389.831L241.822 389.66L240.844 388.475H240.502L241.616 389.831ZM233.103 393.89L231.145 388.502H230.858L232.851 394.006L233.103 393.89ZM234.513 393.387L234.764 393.288L233.022 388.475H232.744L234.513 393.387ZM221.941 391.465L222.704 388.475H222.426L221.68 391.402L221.941 391.465ZM223.395 391.833L223.656 391.896L224.554 388.475H224.275L223.395 391.833ZM202.876 390.935L203.577 388.457H203.298L202.616 390.863L202.876 390.935ZM205.139 388.457L204.322 391.348L204.582 391.42L205.417 388.457H205.139ZM197.246 391.591L197.497 391.51L196.599 388.457H196.321L197.246 391.591ZM198.934 391.079L199.194 391.007L198.422 388.457H198.153L198.934 391.079ZM188.58 311.004L191.274 311.696V311.426L188.625 310.753L188.58 311.004ZM189.083 309.038L189.02 309.289L191.301 309.873V309.594L189.083 309.038ZM191.274 319.257V318.979L189.478 319.58L189.568 319.832L191.274 319.257ZM188.921 317.892L189.002 318.143L191.283 317.389V317.111L188.921 317.892ZM184.09 324.789H184.395L185.563 322.759L185.329 322.624L184.09 324.789ZM186.128 324.789H186.434L187.098 323.639L186.865 323.504L186.128 324.789ZM172.784 322.31L172.578 322.481L174.472 324.789H174.814L172.784 322.31ZM173.951 321.358L176.753 324.789H177.103L174.158 321.197L173.951 321.358ZM167.252 324.384L167.001 324.474L167.118 324.789H167.396L167.252 324.384ZM168.671 323.873L168.995 324.771H169.282L168.923 323.765L168.671 323.873ZM158.946 324.771L159.709 321.762L159.458 321.699L158.677 324.771H158.946ZM161.173 322.13L160.499 324.771H160.778L161.424 322.202L161.173 322.13ZM139.827 324.771L140.806 321.295L140.555 321.224L139.549 324.771H139.827ZM142.521 321.78L142.261 321.708L141.363 324.771H141.641L142.521 321.78ZM177.346 312.908L183.048 315.324L183.156 315.081L177.454 312.666L177.346 312.908ZM176.654 314.533L182.384 316.994L182.491 316.751L176.789 314.3L176.654 314.533ZM181.459 305.23L181.719 305.302L183.398 299.348L183.147 299.267L181.459 305.23ZM183.165 305.715L183.416 305.787L185.105 299.824L184.853 299.752L183.165 305.715ZM173.96 294.634L175.756 300.561L176.008 300.489L174.212 294.544L173.96 294.634ZM175.658 294.122L177.454 300.049L177.705 299.977L175.909 294.05L175.658 294.122ZM154.052 313.653L155.848 319.589L156.099 319.508L154.303 313.582L154.052 313.653ZM157.787 319.041L155.991 313.115L155.74 313.186L157.536 319.122L157.787 319.041ZM164.792 315.611L170.925 314.713V314.453L164.792 315.351V315.611ZM164.998 317.102V317.362L171.132 316.464V316.204L164.998 317.102ZM171.159 303.838L170.898 303.775L169.524 309.81L169.776 309.873L171.159 303.838ZM172.631 304.17L171.249 310.205L171.5 310.268L172.883 304.233L172.631 304.17ZM150.864 306.326L151.088 306.469L154.402 301.234L154.178 301.099L150.864 306.326ZM152.364 307.278L152.588 307.421L155.902 302.186L155.677 302.042L152.364 307.278ZM166.534 295.487L165.959 293.574H165.69L166.283 295.523L166.534 295.487ZM164.585 296.071L164.837 295.999L164.199 293.861L163.939 293.915L164.585 296.071ZM144.255 316.599L144.461 316.76L148.224 311.848L148.017 311.687L144.255 316.599ZM149.643 312.917L149.427 312.755L145.664 317.676L145.88 317.838L149.643 312.917ZM159.072 304.575L158.973 304.817L164.675 307.242L164.774 306.99L159.072 304.575ZM159.664 303.192L165.367 305.607L165.465 305.365L159.763 302.949L159.664 303.192ZM131.144 360.26L128.881 366.025L129.123 366.124L131.386 360.358L131.144 360.26ZM132.787 360.906L130.524 366.671L130.767 366.77L133.039 361.005L132.787 360.906ZM188.733 329.916L191.265 331.281V330.976L188.858 329.683L188.733 329.916ZM189.702 328.12L189.577 328.345L191.265 329.243V328.937L189.702 328.12ZM191.274 340.342L188.76 342.515L188.939 342.713L191.274 340.692V340.342ZM187.781 341.375L191.274 338.357V338.007L187.61 341.168L187.781 341.375ZM190.987 347.984L191.085 348.235L191.274 348.155V347.876L190.987 347.984ZM191.274 345.972L190.376 346.341L190.475 346.583L191.31 346.26L191.274 345.972ZM191.274 356.201L188.58 355.59L188.526 355.85L191.274 356.47V356.201ZM188.975 353.866L188.912 354.126L191.274 354.656V354.387L188.975 353.866ZM191.274 375.13L188.625 374.457L188.553 374.717L191.247 375.409L191.274 375.13ZM189.056 372.742L188.993 373.002L191.274 373.568V373.299L189.056 372.742ZM191.274 382.97V382.683L189.478 383.284L189.568 383.536L191.274 382.97ZM191.274 381.102V380.824L188.912 381.605L188.993 381.856L191.274 381.102ZM149.068 325.749L154.77 328.174L154.878 327.932L149.176 325.507L149.068 325.749ZM148.376 327.384L154.079 329.799L154.187 329.557L148.484 327.141L148.376 327.384ZM185.608 386.463L185.374 386.338L184.09 388.502H184.395L185.608 386.463ZM187.143 387.361L186.91 387.227L186.173 388.52H186.479L187.143 387.361ZM172.622 386.203L174.517 388.52H174.858L172.829 386.032L172.622 386.203ZM173.996 385.08L176.798 388.52H177.148L174.203 384.928L173.996 385.08ZM167.297 388.116L167.046 388.205L167.163 388.52H167.441L167.297 388.116ZM168.716 387.604L169.039 388.502H169.327L168.968 387.496L168.716 387.604ZM158.721 388.502H158.991L159.754 385.493L159.503 385.422L158.721 388.502ZM161.218 385.862L160.544 388.502H160.823L161.469 385.924L161.218 385.862ZM132.006 385.628L131.754 385.7L132.248 387.334L132.464 387.137L132.006 385.628ZM133.703 385.116L133.443 385.197L133.685 385.969L133.892 385.763L133.703 385.116ZM144.021 366.555L143.788 366.429L140.708 371.817L140.941 371.952L144.021 366.555ZM142.477 372.841L145.557 367.453L145.323 367.318L142.243 372.706L142.477 372.841ZM170.62 337.926L166.669 333.158L166.462 333.329L170.386 338.124L170.62 337.926ZM169.246 339.049L165.322 334.253L165.124 334.424L169.039 339.219L169.246 339.049ZM159.548 336.427L161.649 342.246L161.9 342.156L159.799 336.337L159.548 336.427ZM161.209 335.825L163.31 341.644L163.562 341.554L161.46 335.735L161.209 335.825ZM183.192 378.803L177.49 376.388L177.382 376.63L183.084 379.046L183.192 378.803ZM182.5 380.438L176.798 378.013L176.69 378.264L182.393 380.68L182.5 380.438ZM183.183 362.998L181.495 368.961L181.755 369.033L183.434 363.07L183.183 362.998ZM185.141 363.555L184.889 363.483L183.192 369.437L183.443 369.509L185.141 363.555ZM176.008 364.193L174.212 358.266L173.96 358.338L175.756 364.274L176.008 364.193ZM177.705 363.681L175.909 357.754L175.658 357.826L177.454 363.762L177.705 363.681ZM159.745 348.172L156.665 353.56L156.898 353.686L159.979 348.298L159.745 348.172ZM158.21 347.274L155.129 352.662L155.363 352.788L158.443 347.4L158.21 347.274ZM143.842 347.679L147.766 352.474L147.963 352.303L144.066 347.526L143.842 347.679ZM145.207 346.556L149.131 351.351L149.337 351.181L145.476 346.403L145.207 346.556ZM136.936 349.25L139.037 355.078L139.289 354.988L137.187 349.16L136.936 349.25ZM138.606 348.648L140.708 354.476L140.95 354.387L138.849 348.559L138.606 348.648ZM181.396 353.381L181.656 353.444L183.174 347.445L182.923 347.373L181.396 353.381ZM184.898 347.876L184.638 347.813L183.111 353.812L183.372 353.875L184.898 347.876ZM174.823 352.914L169.12 350.498L169.012 350.741L174.715 353.165L174.823 352.914ZM175.514 351.289L169.812 348.873L169.704 349.115L175.406 351.531L175.514 351.289ZM155.758 376.855L157.554 382.781L157.805 382.71L156.009 376.774L155.758 376.855ZM170.934 378.408V378.148L164.801 379.046V379.306L170.934 378.408ZM171.177 380.159V379.899L165.043 380.797V381.057L171.177 380.159ZM169.776 373.568L171.159 367.533L170.898 367.471L169.524 373.514L169.776 373.568ZM171.5 373.963L172.883 367.928L172.631 367.866L171.249 373.909L171.5 373.963ZM154.204 364.839L151.87 368.53L151.968 368.871L154.456 364.947L154.204 364.839ZM155.704 365.782L152.543 370.775L152.642 371.107L155.929 365.926L155.704 365.782ZM150.065 359.658L150.172 359.9L155.848 357.422L155.74 357.179L150.065 359.658ZM156.557 359.047L156.449 358.805L150.774 361.283L150.873 361.526L156.557 359.047ZM145.647 356.353L145.386 356.272L143.68 362.19L143.931 362.262L145.647 356.353ZM142.252 361.831L143.94 355.868L143.689 355.797L142.001 361.759L142.252 361.831ZM166.561 359.2L164.765 353.273L164.514 353.345L166.31 359.281L166.561 359.2ZM162.825 353.812L164.621 359.739L164.873 359.667L163.077 353.74L162.825 353.812ZM154.213 338.546L149.274 342.282L149.436 342.488L154.375 338.761L154.213 338.546ZM150.334 343.691L150.496 343.907L155.444 340.171L155.282 339.965L150.334 343.691ZM144.255 332.915L145.97 338.86L146.23 338.788L144.506 332.835L144.255 332.915ZM142.557 333.4L144.273 339.354L144.524 339.282L142.782 333.4H142.557ZM136.271 339.228H136.541L136.9 333.041H136.631L136.271 339.228ZM138.66 333.167H138.4L138.04 339.354H138.301L138.66 333.167ZM140.833 378.687L137.044 374.744L136.855 374.924L140.654 378.875L140.833 378.687ZM135.769 375.993L135.598 376.262L139.441 380.258L139.621 380.069L135.769 375.993ZM180.669 341.689L180.462 341.527L176.574 346.341L176.78 346.511L180.669 341.689ZM179.088 340.414L175.191 345.227L175.397 345.398L179.295 340.575L179.088 340.414ZM180.193 331.362H179.923L179.232 337.513H179.492L180.193 331.362ZM178.163 331.128L177.472 337.289H177.741L178.433 331.137L178.163 331.128ZM164.792 370.73L159.09 368.315L158.991 368.557L164.693 370.973L164.792 370.73ZM165.483 369.096L159.781 366.68L159.682 366.923L165.385 369.338L165.483 369.096ZM129.923 338.645L129.752 338.447L129.545 338.627L129.096 339.363L129.923 338.645ZM133.057 345.712L127.579 347.858V348.137L133.155 345.954L133.057 345.712ZM132.509 344.311L132.41 344.06L127.579 345.954V346.242L132.509 344.311ZM130.865 357.197L130.928 356.937L127.579 356.183V356.452L130.865 357.197ZM131.261 355.473L131.314 355.213L127.579 354.369V354.638L131.261 355.473ZM130.856 376.262L130.928 376.011L127.579 375.157V375.436L130.856 376.262ZM127.579 373.568L131.296 374.52L131.359 374.259L127.579 373.299V373.568ZM131.728 381.587L131.647 381.336L127.579 382.674V382.961L131.728 381.587ZM131.171 379.908L131.09 379.656L127.579 380.815V381.093L131.171 379.908ZM182.294 328.003L182.527 328.129L184.44 324.789H184.09L182.294 328.003ZM183.829 328.901L184.063 329.027L186.479 324.807H186.173L183.829 328.901ZM176.753 327.105L174.858 324.789H174.517L176.547 327.267L176.753 327.105ZM177.912 326.154L178.118 325.983L177.148 324.789H176.798L177.912 326.154ZM169.399 330.212L167.441 324.824H167.163L169.147 330.338L169.399 330.212ZM170.817 329.701L171.069 329.611L169.327 324.789H169.039L170.817 329.701ZM157.976 327.716L158.236 327.779L158.991 324.789H158.721L157.976 327.716ZM159.691 328.156L159.943 328.219L160.841 324.789H160.562L159.691 328.156ZM138.912 327.204L139.172 327.276L139.872 324.789H139.594L138.912 327.204ZM141.713 324.789H141.435L140.618 327.68L140.869 327.761L141.713 324.789ZM188.76 393.62L191.292 394.985V394.68L188.885 393.387L188.76 393.62ZM189.729 391.824L189.604 392.058L191.292 392.956V392.659L189.729 391.824ZM191.274 404.351V404.001L188.76 406.174L188.939 406.372L191.274 404.351ZM191.274 402.017V401.666L187.61 404.836L187.781 405.034L191.274 402.017ZM190.987 411.643L191.085 411.895L191.274 411.823V411.535L190.987 411.643ZM190.34 410L190.439 410.251L191.274 409.919V409.632L190.34 410ZM188.544 419.258L188.49 419.519L191.238 420.138V419.86L188.544 419.258ZM191.238 418.046L188.939 417.525L188.876 417.785L191.238 418.324V418.046ZM166.462 397.006L170.386 401.801L170.593 401.63L166.669 396.844L166.462 397.006ZM169.219 402.753L165.295 397.967L165.097 398.128L169.012 402.924L169.219 402.753ZM161.873 405.896L160.077 400.885L159.952 401.325L161.631 405.986L161.873 405.896ZM163.535 405.294L161.433 399.466L161.182 399.556L163.283 405.384L163.535 405.294ZM159.943 412.038L159.709 411.904L156.629 417.292L156.863 417.426L159.943 412.038ZM158.147 411.033L156.252 414.427L155.956 415.478L158.443 411.131L158.147 411.033ZM183.12 411.176L182.869 411.113L181.342 417.112L181.602 417.175L183.12 411.176ZM184.844 411.607L184.584 411.544L183.057 417.552L183.318 417.615L184.844 411.607ZM174.823 416.672L169.12 414.256L169.012 414.499L174.715 416.914L174.823 416.672ZM175.514 415.038L169.812 412.622L169.704 412.864L175.406 415.289L175.514 415.038ZM164.522 417.094L165.654 420.848H165.932L164.774 417.013L164.522 417.094ZM163.086 417.525L162.825 417.597L163.804 420.848H164.082L163.086 417.525ZM180.678 405.492L180.471 405.321L176.583 410.135L176.789 410.305L180.678 405.492ZM179.097 404.208L175.2 409.021L175.406 409.192L179.304 404.378L179.097 404.208ZM180.193 395.084H179.923L179.232 401.235H179.492L180.193 395.084ZM178.163 394.86L177.472 401.011H177.741L178.433 394.851L178.163 394.86ZM182.518 391.887L184.431 388.547H184.09L182.294 391.752L182.518 391.887ZM186.164 388.547L183.821 392.632L184.054 392.767L186.47 388.547H186.164ZM176.538 391.025L176.744 390.854L174.849 388.547H174.508L176.538 391.025ZM177.903 389.903L178.109 389.732L177.139 388.547H176.789L177.903 389.903ZM169.39 393.962L167.432 388.574H167.154L169.138 394.078L169.39 393.962ZM170.808 393.459L171.06 393.36L169.318 388.547H169.03L170.808 393.459ZM158.326 390.037L158.479 390.531L158.982 388.547H158.712L158.326 390.037ZM159.682 391.905L159.934 391.968L160.832 388.547H160.553L159.682 391.905ZM127.291 347.984L127.39 348.235L127.579 348.155V347.876L127.291 347.984ZM127.579 345.972L126.681 346.341L126.78 346.583L127.615 346.26L127.579 345.972ZM124.822 355.85L127.579 356.47V356.201L124.885 355.59L124.822 355.85ZM125.217 354.126L127.579 354.656V354.387L125.271 353.812L125.217 354.126ZM127.579 375.175L124.885 374.502L124.822 374.762L127.516 375.454L127.579 375.175ZM125.361 372.787L125.298 373.047L127.579 373.622V373.352L125.361 372.787ZM127.579 383.015V382.728L125.783 383.329L125.864 383.581L127.579 383.015ZM127.579 381.147V380.869L125.208 381.65L125.289 381.901L127.579 381.147ZM121.885 386.535L121.661 386.409L120.422 388.574H120.727L121.885 386.535ZM123.421 387.433L123.197 387.298L122.46 388.591H122.765L123.421 387.433ZM108.909 386.275L110.795 388.591H111.145L109.116 386.104L108.909 386.275ZM110.274 385.152L113.085 388.591H113.426L110.481 384.999L110.274 385.152ZM105.245 387.586L104.994 387.676L105.326 388.574H105.614L105.245 387.586ZM101.384 334.514L102.282 335.663L101.384 334.469V334.514ZM95.8075 336.516L97.9178 342.335L98.1603 342.246L96.0859 336.337L95.8075 336.516ZM97.4778 335.915L99.5791 341.734L99.8306 341.644L97.7292 335.825L97.4778 335.915ZM119.434 378.803L113.732 376.388L113.633 376.63L119.335 379.046L119.434 378.803ZM118.742 380.438L113.049 378.013L112.941 378.264L118.644 380.68L118.742 380.438ZM119.434 362.998L117.746 368.961L117.997 369.033L119.685 363.07L119.434 362.998ZM121.392 363.555L121.131 363.483L119.452 369.437L119.703 369.509L121.392 363.555ZM112.259 364.193L110.463 358.266L110.211 358.338L112.007 364.274L112.259 364.193ZM113.947 363.681L112.151 357.754L111.9 357.826L113.696 363.762L113.947 363.681ZM96.2386 348.307L96.0141 348.172L92.9339 353.56L93.1674 353.686L96.2386 348.307ZM94.703 347.409L94.4785 347.274L91.3983 352.662L91.6318 352.788L94.703 347.409ZM111.109 352.914L105.407 350.498L105.308 350.741L111.011 353.165L111.109 352.914ZM111.801 351.289L106.099 348.873L106 349.115L111.702 351.531L111.801 351.289ZM101.079 379.27L107.212 378.372V378.112L101.079 379.01V379.27ZM101.33 381.021L107.464 380.123V379.863L101.33 380.761V381.021ZM105.82 373.478L106.081 373.532L107.464 367.497L107.203 367.435L105.82 373.478ZM108.927 367.83L107.544 373.873L107.805 373.927L109.188 367.893L108.927 367.83ZM92.0449 357.144L89.6832 358.176L89.773 358.428L92.1527 357.386L92.0449 357.144ZM92.7453 358.769L90.2579 359.855L90.3477 360.107L92.8531 359.011L92.7453 358.769ZM100.827 353.381L102.623 359.317L102.884 359.236L101.088 353.309L100.827 353.381ZM99.1301 353.893L100.926 359.82L101.187 359.748L99.3905 353.821L99.1301 353.893ZM85.5703 342.407L85.732 342.614L90.6799 338.887L90.5183 338.672L85.5703 342.407ZM91.7486 340.297L91.5869 340.09L86.6389 343.817L86.8006 344.033L91.7486 340.297ZM101.097 370.748L95.3944 368.333L95.2867 368.575L100.989 370.991L101.097 370.748ZM95.9781 366.941L101.68 369.356L101.788 369.114L96.0859 366.653L95.9781 366.941ZM125.181 393.432L125.055 393.665L125.28 393.486L125.181 393.432ZM126.016 391.878L125.891 392.112L126.546 392.462L126.762 392.273L126.016 391.878ZM115.842 398.362H116.111L116.479 395.039H116.219L115.842 398.362ZM114.046 398.056L114.306 398.137L114.674 394.842H114.414L114.046 398.056ZM120.682 388.502H120.377L118.581 391.708L118.805 391.842L120.682 388.502ZM122.721 388.502H122.415L120.071 392.588L120.305 392.722L122.721 388.502ZM112.789 390.98L112.986 390.81L111.1 388.502H110.75L112.789 390.98ZM114.154 389.858L114.36 389.687L113.381 388.502H113.04L114.154 389.858ZM105.281 388.502L106.566 392.094L107.059 392.668L105.569 388.538L105.281 388.502Z" fill="white"/>
<path d="M179.744 293.646C179.744 293.646 165.16 291.616 158.425 295.972C151.69 300.327 118.41 357.206 118.41 357.206L100.028 332.467L84.0889 339.624C84.0889 339.624 91.5602 368.539 100.253 382.925C108.946 397.311 113.902 398.766 116.884 398.29C125.756 396.88 151.457 367.147 151.457 367.147L160.796 398.218L154.456 420.803H272.543L258.22 396.916C258.22 396.916 276.907 310.708 272.148 301.575C267.389 292.443 239.658 293.646 230.939 293.646H205.974C202.191 294.396 198.346 294.793 194.489 294.831C189.557 294.688 184.635 294.292 179.744 293.646V293.646Z" stroke="#263238" stroke-width="0.985332"/>
<path d="M151.465 367.147C148.047 360.317 146.719 352.629 147.649 345.047C149.382 332.951 156.871 319.706 156.871 319.706C156.871 319.706 141.929 341.258 141.929 348.442C141.929 355.626 146.374 366.133 146.374 366.133L142.494 377.205L151.465 367.147Z" fill="#263238" stroke="#263238" stroke-width="0.985332" stroke-linecap="round" stroke-linejoin="round"/>
<path d="M192.109 281.73L192.504 294.409L181.809 294.804C181.809 294.804 179.6 341.33 189.119 349.654C198.637 357.979 227.373 293.646 227.373 293.646L217.495 291.661L214.325 265.907L192.109 281.73Z" fill="#CFCFCF" stroke="#263238" stroke-width="0.985332" stroke-linecap="round" stroke-linejoin="round"/>
<path d="M215.466 270.936L192.594 292.488V284.864L215.466 270.936Z" fill="#263238" stroke="#263238" stroke-width="0.985332" stroke-linecap="round" stroke-linejoin="round"/>
<path d="M189.119 349.654C189.119 349.654 190.268 342.165 196.024 332.377L189.119 349.654Z" fill="white"/>
<path d="M189.119 349.654C189.119 349.654 190.268 342.165 196.024 332.377" stroke="#263238" stroke-width="0.985332" stroke-linecap="round" stroke-linejoin="round"/>
<path d="M187.502 210.231L161.46 237.305C163.506 243.068 164.498 249.152 164.388 255.265C164.083 264.856 172.802 278.964 179.932 285.519C187.062 292.075 201.61 281.999 207.043 278.443C210.671 275.984 214.054 273.181 217.145 270.073C219.127 269.988 221.054 269.4 222.747 268.367C224.44 267.334 225.844 265.888 226.826 264.165C226.826 264.165 188.984 223.728 187.502 210.231Z" fill="#CFCFCF" stroke="#263238" stroke-width="0.985332" stroke-linecap="round" stroke-linejoin="round"/>
<path d="M180.444 238.033C181.344 239.867 181.927 241.841 182.168 243.87C182.249 246.375 177.858 258.112 178.486 258.893C179.115 259.675 181.082 262.261 182.617 261.929" stroke="#263238" stroke-width="0.985332" stroke-linecap="round" stroke-linejoin="round"/>
<path d="M191.274 250.865C194.943 249.49 198.978 249.443 202.679 250.731" stroke="#263238" stroke-width="0.492666" stroke-linecap="round" stroke-linejoin="round"/>
<path d="M171.006 251.799C172.968 251.248 174.995 250.964 177.032 250.955" stroke="#263238" stroke-width="0.492666" stroke-linecap="round" stroke-linejoin="round"/>
<path d="M177.157 231.397C176.151 231.322 175.141 231.481 174.207 231.861C173.272 232.241 172.438 232.832 171.769 233.588C169.515 236.183 168.42 238.446 167.854 236.614C167.288 234.782 169.803 231.415 170.692 230.732C171.581 230.05 175.747 227.374 177.157 231.397Z" fill="#263238"/>
<path d="M188.302 229.888C190.943 229.878 193.55 230.494 195.908 231.684C199.347 233.57 197.704 229.744 195.288 228.649C192.873 227.553 188.688 227.661 188.302 229.888Z" fill="#263238"/>
<path d="M228.173 274.923C228.334 277.617 226.942 279.862 225.084 279.969C223.225 280.077 221.581 277.994 221.42 275.318C221.258 272.642 222.381 265.736 224.239 265.628C226.098 265.521 228.02 272.238 228.173 274.923Z" fill="#1D9FD9" stroke="#263238" stroke-width="0.985332" stroke-linecap="round" stroke-linejoin="round"/>
<path d="M176.089 246.95C176.215 248.746 175.532 250.201 174.571 250.264C173.611 250.326 172.775 248.953 172.623 247.192C172.47 245.432 173.18 243.942 174.14 243.879C175.101 243.816 176.008 245.226 176.089 246.95Z" fill="#263238"/>
<path d="M195.468 246.259C195.594 248.055 194.911 249.5 193.959 249.572C193.007 249.644 192.163 248.261 192.002 246.492C191.84 244.723 192.567 243.25 193.519 243.187C194.471 243.125 195.351 244.498 195.468 246.259Z" fill="#263238"/>
<path d="M182.492 267.038C182.492 267.038 187.063 268.502 193.268 263.195" stroke="#263238" stroke-width="0.985332" stroke-linecap="round" stroke-linejoin="round"/>
<path d="M100.028 332.484L91.668 321.286C91.2819 318.305 90.5366 312.145 90.4108 307.987C90.2402 302.33 90.5186 298.872 87.3038 293.853C84.0889 288.833 75.1179 280.903 74.2738 279.062C73.4297 277.222 70.9871 282.412 72.5227 285.779C74.0583 289.147 75.4591 290.18 75.4591 290.18C75.4591 290.18 58.9449 281.972 58.3971 283.31C57.8494 284.648 66.084 308.31 69.8556 314.551C71.4271 317.156 75.7824 320.64 77.8837 323.657C78.9115 325.146 79.7926 326.731 80.5149 328.39C82.4725 336.714 84.7534 345.874 85.9029 346.206C88.5161 346.969 99.6064 347.149 100.028 332.484Z" fill="#CFCFCF" stroke="#263238" stroke-width="0.985332" stroke-miterlimit="10"/>
<path d="M76.5547 306.757C76.4037 306.797 76.2462 306.808 76.0913 306.787C75.9363 306.767 75.7869 306.716 75.6517 306.637C75.5165 306.559 75.3981 306.455 75.3034 306.33C75.2087 306.206 75.1396 306.064 75.0999 305.913L61.9622 257.34C61.892 257.046 61.9365 256.737 62.0867 256.475C62.2369 256.213 62.4814 256.018 62.7704 255.93C63.074 255.85 63.3968 255.893 63.6691 256.049C63.9413 256.205 64.1411 256.463 64.2252 256.765L77.3988 305.32C77.4731 305.622 77.4264 305.942 77.2687 306.21C77.1111 306.478 76.8549 306.674 76.5547 306.757Z" fill="#263238" stroke="#263238" stroke-width="0.985332" stroke-miterlimit="10"/>
<path d="M67.0806 275.857C67.0806 275.857 54.4009 282.556 55.1821 283.867C55.9634 285.178 58.2802 289.856 59.3399 289.749C60.3995 289.641 68.0954 283.355 68.6521 282.565C69.2089 281.774 67.0806 275.857 67.0806 275.857Z" fill="#CFCFCF" stroke="#263238" stroke-width="0.985332" stroke-miterlimit="10"/>
<path d="M69.3435 284.082C69.3435 284.082 58.8099 291.85 59.1512 292.981C59.4924 294.113 64.6559 307.502 65.5539 308.589C66.4519 309.675 74.6956 305.895 74.6956 305.895L69.3435 284.082Z" fill="#CFCFCF" stroke="#263238" stroke-width="0.985332" stroke-miterlimit="10"/>
<path d="M70.9422 291.302C70.9422 291.302 60.8577 299.223 61.5222 299.474" stroke="#263238" stroke-width="0.985332" stroke-miterlimit="10"/>
<path d="M72.8458 299.887L64.3687 304.853" stroke="#263238" stroke-width="0.985332" stroke-miterlimit="10"/>
<path d="M75.4321 290.18L80.0838 294.724C80.0838 294.724 73.9055 307.915 79.8233 315.198" stroke="#263238" stroke-width="0.985332" stroke-miterlimit="10"/>
<path d="M258.974 296.457C258.974 296.457 270.262 294.984 275.138 304.314C280.014 313.644 310.483 396.108 310.977 403.992C311.471 411.877 290.844 413.807 283.974 410.377C277.105 406.947 257.932 366.195 255.993 360.789" fill="#1D9FD9"/>
<path d="M262.563 353.559L260.89 359.507L261.148 359.58L262.821 353.632L262.563 353.559Z" fill="white"/>
<path d="M266.463 336.786L264.748 330.832L264.488 330.913L266.212 336.858L266.463 336.786Z" fill="white"/>
<path d="M265.624 354.149L263.933 360.11L264.192 360.184L265.883 354.223L265.624 354.149Z" fill="white"/>
<path d="M268.224 350.247L264.299 345.452L264.093 345.622L268.017 350.409L268.224 350.247Z" fill="white"/>
<path d="M276.693 356.672L271.014 359.149L271.122 359.396L276.801 356.919L276.693 356.672Z" fill="white"/>
<path d="M276.162 363.816L275.938 363.672L272.624 368.907L272.849 369.051L276.162 363.816Z" fill="white"/>
<path d="M262.791 331.398L264.506 337.352L264.767 337.271L263.042 331.326L262.791 331.398Z" fill="white"/>
<path d="M271.124 367.955L271.349 368.099L274.662 362.873L274.438 362.729L271.124 367.955Z" fill="white"/>
<path d="M269.589 349.124L265.673 344.329L265.467 344.5L269.382 349.286L269.589 349.124Z" fill="white"/>
<path d="M275.528 337.948L270.575 341.671L270.737 341.886L275.69 338.163L275.528 337.948Z" fill="white"/>
<path d="M274.285 311.579L276.072 317.515L276.324 317.434L274.546 311.507L274.285 311.579Z" fill="white"/>
<path d="M274.617 336.768L274.456 336.552L269.508 340.279L269.669 340.495L274.617 336.768Z" fill="white"/>
<path d="M271.349 304.422L273.207 301.486C273.145 301.423 273.091 301.351 273.028 301.279L271.124 304.278L271.349 304.422Z" fill="white"/>
<path d="M265.916 315.602L266.132 315.764L269.894 310.843L269.688 310.681L265.916 315.602Z" fill="white"/>
<path d="M269.292 323.675L274.995 326.091L275.103 325.848L269.4 323.433L269.292 323.675Z" fill="white"/>
<path d="M275.982 311.067L277.769 317.003L278.021 316.922L276.243 310.995L275.982 311.067Z" fill="white"/>
<path d="M275.605 350.723L278.685 345.344L278.452 345.218L275.381 350.588L275.605 350.723Z" fill="white"/>
<path d="M268.716 325.084L268.614 325.324L274.318 327.744L274.42 327.504L268.716 325.084Z" fill="white"/>
<path d="M275.97 355.085L270.29 357.562L270.398 357.809L276.077 355.332L275.97 355.085Z" fill="white"/>
<path d="M290.054 410.503L289.955 410.745L292.82 411.966H293.52L290.054 410.503Z" fill="white"/>
<path d="M291.293 391.241L289.551 386.418L289.192 385.422L288.94 385.511L289.273 386.418L291.042 391.33L291.293 391.241Z" fill="white"/>
<path d="M285.331 396.054L289.255 400.849L289.452 400.679L285.537 395.883L285.331 396.054Z" fill="white"/>
<path d="M289.623 391.842L287.674 386.418L287.522 386.023L287.279 386.104L287.387 386.418L289.381 391.932L289.623 391.842Z" fill="white"/>
<path d="M291.365 377.824L285.232 378.687L285.268 378.947L291.401 378.085L291.365 377.824Z" fill="white"/>
<path d="M309.181 404.298L310.843 402.861L310.789 402.564L308.993 404.1L309.181 404.298Z" fill="white"/>
<path d="M264.515 314.524L264.722 314.686L268.493 309.765L268.278 309.603L264.515 314.524Z" fill="white"/>
<path d="M257.446 347.091L257.192 347.182L259.296 353.01L259.55 352.919L257.446 347.091Z" fill="white"/>
<path d="M308.014 402.96L310.385 400.912C310.355 400.818 310.331 400.722 310.313 400.625L307.843 402.762L308.014 402.96Z" fill="white"/>
<path d="M290.826 399.556L286.902 394.77L286.695 394.931L290.62 399.727L290.826 399.556Z" fill="white"/>
<path d="M258.66 331.168L258.3 337.354L258.569 337.369L258.929 331.183L258.66 331.168Z" fill="white"/>
<path d="M286.794 357.117L285.016 351.19L284.756 351.262L286.543 357.197L286.794 357.117Z" fill="white"/>
<path d="M281.67 333.643L281.425 333.731L283.528 339.56L283.773 339.471L281.67 333.643Z" fill="white"/>
<path d="M280.769 322.714L279.916 326.082L280.176 326.145L281.047 322.714L281.703 320.137L281.442 320.074L280.769 322.714Z" fill="white"/>
<path d="M278.946 322.714L278.2 325.642L278.461 325.705L279.215 322.714L279.987 319.706L279.727 319.643L278.946 322.714Z" fill="white"/>
<path d="M283.059 351.774L284.846 357.7L285.097 357.628L283.319 351.693L283.059 351.774Z" fill="white"/>
<path d="M279.991 334.27L279.746 334.358L281.85 340.186L282.095 340.098L279.991 334.27Z" fill="white"/>
<path d="M259.122 346.473L258.869 346.565L260.972 352.393L261.225 352.302L259.122 346.473Z" fill="white"/>
<path d="M272.849 305.32L274.357 302.94L274.196 302.689L272.624 305.185L272.849 305.32Z" fill="white"/>
<path d="M279.916 364.821L285.618 367.237L285.717 366.995L280.014 364.579L279.916 364.821Z" fill="white"/>
<path d="M264.245 300.776L264.012 300.641L260.932 306.011L261.165 306.146L264.245 300.776Z" fill="white"/>
<path d="M306.218 387.307L306.102 386.975L304.081 390.513L304.306 390.639L306.218 387.307Z" fill="white"/>
<path d="M300.426 392.965L300.165 392.938L299.465 399.089L299.734 399.116L300.426 392.965Z" fill="white"/>
<path d="M297.034 375.968L296.932 376.208L302.636 378.628L302.738 378.388L297.034 375.968Z" fill="white"/>
<path d="M304.664 386.418L305.446 385.062L305.338 384.721L304.359 386.418L302.518 389.633L302.752 389.759L304.664 386.418Z" fill="white"/>
<path d="M300.92 403.373L300.713 403.202L296.816 408.015L297.022 408.186L300.92 403.373Z" fill="white"/>
<path d="M302.455 376.325L297.714 374.313L297.615 374.556L302.572 376.657L302.455 376.325Z" fill="white"/>
<path d="M299.537 402.259L299.33 402.089L295.442 406.902L295.648 407.072L299.537 402.259Z" fill="white"/>
<path d="M293.125 365.818L292.865 365.755L291.482 371.79L291.742 371.853L293.125 365.818Z" fill="white"/>
<path d="M296.771 388.906L296.977 388.735L295.083 386.418L293.053 383.94L292.847 384.111L294.741 386.418L296.771 388.906Z" fill="white"/>
<path d="M262.467 306.891L262.701 307.026L265.781 301.647L265.547 301.521L262.467 306.891Z" fill="white"/>
<path d="M279.99 397.97L279.745 398.058L281.849 403.886L282.094 403.798L279.99 397.97Z" fill="white"/>
<path d="M303.434 409.075L303.174 409.003L302.698 410.871L302.994 410.79L303.434 409.075Z" fill="white"/>
<path d="M281.676 397.347L281.431 397.435L283.534 403.263L283.779 403.175L281.676 397.347Z" fill="white"/>
<path d="M289.946 347.041L292.317 348.047C292.317 347.93 292.227 347.813 292.191 347.706L290.045 346.808L289.946 347.041Z" fill="white"/>
<path d="M305.149 409.488L304.889 409.425L304.673 410.26L304.979 410.152L305.149 409.488Z" fill="white"/>
<path d="M274.411 391.187L269.706 389.193L269.903 389.561L274.303 391.429L274.411 391.187Z" fill="white"/>
<path d="M258.328 310.492L261.39 313.68L261.587 313.501L258.346 310.133L258.328 310.492Z" fill="white"/>
<path d="M285.331 332.35L287.432 334.909L287.136 334.137L285.564 332.179L285.331 332.35Z" fill="white"/>
<path d="M260.115 314.911L260.303 314.722L258.238 312.567L258.22 312.935L260.115 314.911Z" fill="white"/>
<path d="M294.194 356.264L295.981 362.199L296.232 362.118L294.454 356.192L294.194 356.264Z" fill="white"/>
<path d="M275.103 389.561L269.4 387.137L269.292 387.379L274.995 389.804L275.103 389.561Z" fill="white"/>
<path d="M268.493 373.478L268.278 373.317L264.515 378.229L264.722 378.39L268.493 373.478Z" fill="white"/>
<path d="M278.021 380.635L276.243 374.699L275.982 374.78L277.769 380.707L278.021 380.635Z" fill="white"/>
<path d="M276.324 381.147L274.546 375.211L274.285 375.292L276.072 381.219L276.324 381.147Z" fill="white"/>
<path d="M269.894 374.547L269.688 374.394L265.916 379.306L266.132 379.468L269.894 374.547Z" fill="white"/>
<path d="M260.842 325.606L261.103 325.678L261.938 322.714L262.782 319.724L262.531 319.643L261.659 322.714L260.842 325.606Z" fill="white"/>
<path d="M259.818 322.714L259.136 325.13L259.396 325.202L260.097 322.714L261.075 319.239L260.824 319.167L259.818 322.714Z" fill="white"/>
<path d="M264.245 364.48L264.012 364.346L260.932 369.725L261.165 369.85L264.245 364.48Z" fill="white"/>
<path d="M265.781 365.36L265.547 365.226L262.467 370.605L262.701 370.73L265.781 365.36Z" fill="white"/>
<path d="M279.997 346.098L276.917 351.468L277.141 351.603L280.221 346.224L279.997 346.098Z" fill="white"/>
<path d="M291.141 365.36L289.758 371.395L290.018 371.458L291.401 365.423L291.141 365.36Z" fill="white"/>
<path d="M293.026 349.978L289.354 348.424L289.255 348.666L293.152 350.319C293.107 350.22 293.071 350.094 293.026 349.978Z" fill="white"/>
<path d="M291.159 376.334L291.123 376.073L284.989 376.935L285.025 377.196L291.159 376.334Z" fill="white"/>
<path d="M294.427 382.817L294.221 382.988L297.031 386.418L298.145 387.783L298.352 387.613L297.373 386.418L294.427 382.817Z" fill="white"/>
<path d="M281.047 386.418L281.703 383.85L281.442 383.787L280.769 386.418L279.916 389.786L280.176 389.849L281.047 386.418Z" fill="white"/>
<path d="M279.328 366.235L279.226 366.474L284.93 368.895L285.032 368.655L279.328 366.235Z" fill="white"/>
<path d="M279.215 386.418L279.987 383.41L279.727 383.347L278.946 386.418L278.2 389.346L278.461 389.418L279.215 386.418Z" fill="white"/>
<path d="M297.974 398.919L298.666 392.767L298.406 392.74L297.705 398.892L297.974 398.919Z" fill="white"/>
<path d="M258.974 296.457C258.974 296.457 270.262 294.984 275.138 304.314C280.014 313.644 310.483 396.108 310.977 403.992C311.471 411.877 290.844 413.807 283.974 410.377C277.105 406.947 257.932 366.195 255.993 360.789" stroke="#263238" stroke-width="0.985332"/>
<path d="M190.735 408.877C190.735 408.877 167.665 405.932 163.732 406.417C159.799 406.902 142.135 418.692 142.135 418.692H192.172L190.735 408.877Z" fill="#CFCFCF" stroke="#263238" stroke-width="0.985332" stroke-linecap="round" stroke-linejoin="round"/>
<path d="M285.968 393.162L190.78 408.877L192.172 418.693H309.541C310.454 413.835 310.946 408.908 311.014 403.965C311.014 396.602 306.595 388.259 306.595 388.259" fill="#1D9FD9"/>
<path d="M293.853 409.371L295.64 415.298L295.891 415.226L294.113 409.29L293.853 409.371Z" fill="white"/>
<path d="M300.372 392.597L296.475 397.41L296.681 397.581L300.578 392.767L300.372 392.597Z" fill="white"/>
<path d="M295.101 396.296L295.307 396.467L299.195 391.654L298.989 391.483L295.101 396.296Z" fill="white"/>
<path d="M282.717 404.872L284.504 410.808L284.756 410.727L282.978 404.8L282.717 404.872Z" fill="white"/>
<path d="M297.588 414.714L295.801 408.779L295.55 408.859L297.337 414.786L297.588 414.714Z" fill="white"/>
<path d="M286.453 410.224L284.675 404.289L284.415 404.369L286.202 410.296L286.453 410.224Z" fill="white"/>
<path d="M302.839 398.402L301.313 404.407L301.575 404.473L303.1 398.468L302.839 398.402Z" fill="white"/>
<path d="M301.746 418.692H302.024L303.327 414.095L303.066 414.023L301.746 418.692Z" fill="white"/>
<path d="M279.673 417.678L279.574 417.92L281.388 418.693H282.071L279.673 417.678Z" fill="white"/>
<path d="M304.531 398.794L303.004 404.8L303.266 404.866L304.792 398.861L304.531 398.794Z" fill="white"/>
<path d="M258.772 399.571L258.519 399.663L260.622 405.491L260.875 405.4L258.772 399.571Z" fill="white"/>
<path d="M288.914 401.774L294.607 404.19L294.715 403.947L289.012 401.523L288.914 401.774Z" fill="white"/>
<path d="M290.8 418.468L290.746 418.693H291.016L291.061 418.522L290.8 418.468Z" fill="white"/>
<path d="M289.705 399.917L289.603 400.157L295.307 402.577L295.409 402.337L289.705 399.917Z" fill="white"/>
<path d="M263.751 398.721L267.676 403.516L267.882 403.346L263.958 398.55L263.751 398.721Z" fill="white"/>
<path d="M269.247 402.223L265.323 397.437L265.125 397.598L269.041 402.394L269.247 402.223Z" fill="white"/>
<path d="M307.682 392.354L308.23 391.878L308.122 391.618L307.511 392.157L307.682 392.354Z" fill="white"/>
<path d="M263.579 406.771L261.888 412.732L262.147 412.805L263.838 406.844L263.579 406.771Z" fill="white"/>
<path d="M308.822 405.106L310.986 405.6C310.986 405.51 310.986 405.42 310.986 405.33L308.867 404.845L308.822 405.106Z" fill="white"/>
<path d="M275.596 416.78L274.384 418.692H274.698L275.821 416.914L275.596 416.78Z" fill="white"/>
<path d="M310.924 407.126L308.49 406.578L308.427 406.83L310.906 407.396C310.915 407.306 310.924 407.216 310.924 407.126Z" fill="white"/>
<path d="M308.84 393.693L308.903 393.639L308.804 393.369L308.669 393.495L308.84 393.693Z" fill="white"/>
<path d="M275.625 408.177L269.946 410.654L270.053 410.901L275.733 408.424L275.625 408.177Z" fill="white"/>
<path d="M274.321 415.972L274.097 415.828L272.283 418.693H272.597L274.321 415.972Z" fill="white"/>
<path d="M265.301 407.3L263.61 413.261L263.869 413.335L265.56 407.374L265.301 407.3Z" fill="white"/>
<path d="M276.352 409.778L270.673 412.255L270.781 412.502L276.46 410.025L276.352 409.778Z" fill="white"/>
<path d="M279.88 399.332L279.655 399.197L276.575 404.576L276.8 404.711L279.88 399.332Z" fill="white"/>
<path d="M275.04 403.696L275.264 403.822L278.344 398.452L278.111 398.317L275.04 403.696Z" fill="white"/>
<path d="M211.924 408.182L206.245 410.659L206.352 410.906L212.032 408.429L211.924 408.182Z" fill="white"/>
<path d="M200.2 417.579L199.967 417.453L199.257 418.692H199.563L200.2 417.579Z" fill="white"/>
<path d="M198.44 412.811L199.984 407.351L199.697 407.396L198.188 412.739L198.44 412.811Z" fill="white"/>
<path d="M201.737 418.459L201.503 418.333L201.296 418.693H201.602L201.737 418.459Z" fill="white"/>
<path d="M231.594 402.555L231.702 402.313L231.361 402.178L230.876 402.25L231.594 402.555Z" fill="white"/>
<path d="M238.042 418.692H238.32L239.614 414.095L239.362 414.023L238.042 418.692Z" fill="white"/>
<path d="M240.368 400.688L239.317 404.836L239.568 404.908L240.655 400.643L240.368 400.688Z" fill="white"/>
<path d="M210.617 415.972L210.393 415.828L208.579 418.693H208.893L210.617 415.972Z" fill="white"/>
<path d="M212.117 416.914L211.892 416.78L210.671 418.692H210.985L212.117 416.914Z" fill="white"/>
<path d="M265.207 418.333L265 418.693H265.306L265.441 418.459L265.207 418.333Z" fill="white"/>
<path d="M304.772 414.508L303.587 418.693H303.865L305.024 414.58L304.772 414.508Z" fill="white"/>
<path d="M257.105 400.186L256.852 400.277L258.956 406.105L259.209 406.014L257.105 400.186Z" fill="white"/>
<path d="M241.059 414.508L239.883 418.693H240.152L241.32 414.58L241.059 414.508Z" fill="white"/>
<path d="M215.969 417.678L215.861 417.92L217.684 418.693H218.358L215.969 417.678Z" fill="white"/>
<path d="M263.904 417.579L263.671 417.453L262.961 418.692H263.267L263.904 417.579Z" fill="white"/>
<path d="M200.223 406.886L198.55 412.834L198.809 412.907L200.482 406.959L200.223 406.886Z" fill="white"/>
<path d="M251.305 411.392L251.054 411.293L248.791 417.058L249.033 417.157L251.305 411.392Z" fill="white"/>
<path d="M212.631 409.802L206.952 412.278L207.059 412.525L212.739 410.048L212.631 409.802Z" fill="white"/>
<path d="M252.948 412.029L252.697 411.94L250.434 417.705L250.686 417.794L252.948 412.029Z" fill="white"/>
<path d="M244.723 406.839L247.471 407.459L250.758 408.195L250.821 407.934L247.471 407.18L244.777 406.578L244.723 406.839Z" fill="white"/>
<path d="M251.153 406.471L251.216 406.21L247.471 405.366L245.172 404.845L245.109 405.106L247.471 405.636L251.153 406.471Z" fill="white"/>
<path d="M237.862 404.468L238.751 400.957L238.464 401.002L237.602 404.405L237.862 404.468Z" fill="white"/>
<path d="M231.011 403.947L228.101 402.708L227.616 402.789L230.903 404.19L231.011 403.947Z" fill="white"/>
<path d="M222.488 410.296L222.749 410.224L220.962 404.289L220.71 404.369L222.488 410.296Z" fill="white"/>
<path d="M221.052 410.727L219.265 404.8L219.013 404.872L220.8 410.808L221.052 410.727Z" fill="white"/>
<path d="M230.148 409.371L231.935 415.298L232.187 415.226L230.4 409.29L230.148 409.371Z" fill="white"/>
<path d="M227.086 418.468L227.032 418.693H227.311L227.347 418.522L227.086 418.468Z" fill="white"/>
<path d="M233.884 414.714L232.097 408.779L231.846 408.859L233.624 414.786L233.884 414.714Z" fill="white"/>
<path d="M285.968 393.162L190.78 408.877L192.172 418.693H309.541C310.454 413.835 310.946 408.908 311.014 403.965C311.014 396.602 306.595 388.259 306.595 388.259" stroke="#263238" stroke-width="0.985332"/>
<path d="M306.901 417.103H188.58L184.701 352.016C184.595 351.382 184.629 350.733 184.8 350.113C184.97 349.493 185.274 348.918 185.689 348.428C186.104 347.937 186.621 347.543 187.204 347.273C187.787 347.002 188.422 346.862 189.065 346.861H306.398C307.041 346.86 307.677 347 308.26 347.27C308.844 347.54 309.362 347.934 309.778 348.425C310.193 348.916 310.497 349.491 310.667 350.112C310.837 350.732 310.869 351.382 310.762 352.016L306.901 417.103Z" fill="#263238" stroke="#263238" stroke-width="0.985332" stroke-linecap="round" stroke-linejoin="round"/>
<path d="M194.39 348.424H305.545C306.172 348.417 306.794 348.548 307.366 348.806C307.937 349.065 308.446 349.445 308.856 349.921C309.265 350.396 309.566 350.955 309.737 351.559C309.908 352.163 309.945 352.797 309.846 353.417" stroke="white" stroke-width="0.985332" stroke-linecap="round" stroke-linejoin="round"/>
<path d="M185.581 352.42C185.665 351.328 186.16 350.308 186.967 349.566C187.774 348.824 188.832 348.416 189.927 348.424" stroke="white" stroke-width="0.985332" stroke-linecap="round" stroke-linejoin="round"/>
<path d="M307.395 410.763H188.068V417.103H307.395V410.763Z" fill="white" stroke="#263238" stroke-width="0.985332" stroke-linecap="round" stroke-linejoin="round"/>
<path d="M255.769 382.243C255.769 385.044 251.979 387.316 247.31 387.316C242.64 387.316 238.859 385.044 238.859 382.243C238.859 379.441 242.649 377.169 247.31 377.169C251.97 377.169 255.769 379.441 255.769 382.243Z" fill="white" stroke="#263238" stroke-width="0.985332" stroke-linecap="round" stroke-linejoin="round"/>
<path d="M70.8881 410.566C68.3803 410.441 65.9171 409.854 63.6233 408.832C63.039 408.551 62.5859 408.055 62.3586 407.448C62.1313 406.841 62.1474 406.169 62.4035 405.574C62.6596 404.978 63.136 404.504 63.7331 404.251C64.3302 403.998 65.0018 403.986 65.6079 404.217C67.9247 405.205 70.8971 405.815 71.6963 405.474C73.151 403.831 75.405 393.908 72.4955 389.175C72.3427 388.841 72.1122 388.549 71.8231 388.322C71.5341 388.096 71.195 387.942 70.8342 387.873C69.1819 387.649 66.7393 389.346 65.8773 390.154C65.3857 390.582 64.7475 390.802 64.0969 390.768C63.4464 390.734 62.8344 390.449 62.3897 389.973C61.9451 389.497 61.7026 388.867 61.7132 388.216C61.7239 387.564 61.9869 386.943 62.4469 386.481C62.9049 386.05 67.0716 382.306 71.4987 382.889C72.5977 383.053 73.6443 383.467 74.5582 384.099C75.472 384.732 76.2287 385.565 76.77 386.535C81.0534 393.504 78.126 406.794 74.8303 409.398C73.6861 410.222 72.2964 410.634 70.8881 410.566Z" fill="#263238" stroke="#263238" stroke-width="0.985332" stroke-linecap="round" stroke-linejoin="round"/>
<path d="M66.443 380.842H38.7397V417.615H66.443V380.842Z" fill="#263238" stroke="#263238" stroke-width="0.985332" stroke-linecap="round" stroke-linejoin="round"/>
<path d="M41.2544 378.83C41.2544 378.83 41.2544 375.768 46.8669 372.706C52.4794 369.644 55.5416 365.055 52.4794 356.38C49.4172 347.706 49.9291 341.581 56.0714 336.472" stroke="#263238" stroke-width="0.985332" stroke-linecap="round" stroke-linejoin="round"/>
<path d="M42.5293 346.188C42.8167 342.461 44.478 339.309 47.9173 336.472" stroke="#263238" stroke-width="0.985332" stroke-linecap="round" stroke-linejoin="round"/>
<path d="M44.3164 356.38C43.7558 354.833 43.3027 353.249 42.9604 351.639" stroke="#263238" stroke-width="0.985332" stroke-linecap="round" stroke-linejoin="round"/>
<path d="M64.0452 359.371C63.8301 358.355 63.545 357.356 63.1921 356.38L62.7251 354.997" stroke="#263238" stroke-width="0.985332" stroke-linecap="round" stroke-linejoin="round"/>
<path d="M51.9673 378.83C51.9673 378.83 51.9673 375.768 57.5798 372.706C61.2616 370.694 63.8658 368.027 64.3238 363.986" stroke="#263238" stroke-width="0.985332" stroke-linecap="round" stroke-linejoin="round"/>
<path d="M431.067 416.986H13.1021V426.236H431.067V416.986Z" fill="#263238"/>
</svg>
